<svg width="54" height="31" viewBox="0 0 54 31" fill="none" xmlns="http://www.w3.org/2000/svg">
<mask id="path-1-inside-1" fill="white">
<path fill-rule="evenodd" clip-rule="evenodd" d="M8.3877 0C7.04164 0 5.81485 0.771937 5.23237 1.98544L0.344669 12.1682C0.11779 12.6408 0 13.1584 0 13.6827V22.5C0 24.4342 1.57399 26 3.50574 26H3.60929H3.7127H3.81595H3.91906H4.02202H4.12483H4.22749H4.33001H4.43238H4.53461H4.63669H4.73863H4.84043H4.94208H5.04359H5.14496H5.24619H5.34728H5.44823H5.54904H5.64971H5.75024H5.85063H5.95089H6.05101H6.151H6.25085H6.35057H6.45015H6.5496H6.64891H6.7481H6.84715H6.94607H7.04486H7.14353H7.24206H7.34046H7.43874H7.53688H7.63491H7.7328H7.83057H7.92821H8.02242C8.00758 25.8353 8 25.6685 8 25.5C8 25.3315 8.00758 25.1647 8.02242 25H7.92821H7.83057H7.7328H7.63491H7.53688H7.43874H7.34046H7.24206H7.14353H7.04486H6.94607H6.84715H6.7481H6.64891H6.5496H6.45015H6.35057H6.25085H6.151H6.05101H5.95089H5.85063H5.75024H5.64971H5.54904H5.44823H5.34728H5.24619H5.14496H5.04359H4.94208H4.84043H4.73863H4.63669H4.53461H4.43238H4.33001H4.22749H4.12483H4.02202H3.91906H3.81595H3.7127H3.60929H3.50574C2.12378 25 1 23.8795 1 22.5V13.6827C1 13.3082 1.08414 12.9385 1.24619 12.6009L6.13389 2.41817C6.54995 1.55138 7.42623 1 8.3877 1H20C21.3807 1 22.5 2.11929 22.5 3.5V10C22.5 11.933 24.067 13.5 26 13.5H50C51.3806 13.5 52.5 14.6196 52.5 16.0004V16.0138V16.0272V16.0406V16.054V16.0673V16.0807V16.0941V16.1074V16.1207V16.134V16.1474V16.1607V16.174V16.1873V16.2005V16.2138V16.2271V16.2404V16.2536V16.2669V16.2801V16.2933V16.3065V16.3198V16.333V16.3462V16.3594V16.3725V16.3857V16.3989V16.4121V16.4252V16.4384V16.4515V16.4646V16.4778V16.4909V16.504V16.5171V16.5302V16.5433V16.5564V16.5695V16.5825V16.5956V16.6087V16.6217V16.6348V16.6478V16.6608V16.6738V16.6869V16.6999V16.7129V16.7259V16.7389V16.7518V16.7648V16.7778V16.7908V16.8037V16.8167V16.8296V16.8426V16.8555V16.8684V16.8813V16.8943V16.9072V16.9201V16.933V16.9459V16.9587V16.9716V16.9845V16.9974V17.0102V17.0231V17.0359V17.0488V17.0616V17.0744V17.0873V17.1001V17.1129V17.1257V17.1385V17.1513V17.1641V17.1769V17.1897V17.2025V17.2152V17.228V17.2408V17.2535V17.2663V17.279V17.2918V17.3045V17.3172V17.33V17.3427V17.3554V17.3681V17.3808V17.3935V17.4062V17.4189V17.4316V17.4443V17.457V17.4696V17.4823V17.495V17.5076V17.5203V17.5329V17.5456V17.5582V17.5709V17.5835V17.5961V17.6087V17.6214V17.634V17.6466V17.6592V17.6718V17.6844V17.697V17.7096V17.7222V17.7348V17.7473V17.7599V17.7725V17.785V17.7976V17.8102V17.8227V17.8353V17.8478V17.8604V17.8729V17.8854V17.898V17.9105V17.923V17.9356V17.9481V17.9606V17.9731V17.9856V17.9981V18.0106V18.0231V18.0356V18.0481V18.0606V18.0731V18.0856V18.0981V18.1105V18.123V18.1355V18.148V18.1604V18.1729V18.1854V18.1978V18.2103V18.2227V18.2352V18.2476V18.2601V18.2725V18.2849V18.2974V18.3098V18.3222V18.3347V18.3471V18.3595V18.372V18.3844V18.3968V18.4092V18.4216V18.434V18.4464V18.4588V18.4713V18.4837V18.4961V18.5085V18.5209V18.5332V18.5456V18.558V18.5704V18.5828V18.5952V18.6076V18.62V18.6323V18.6447V18.6571V18.6695V18.6819V18.6942V18.7066V18.719V18.7313V18.7437V18.7561V18.7684V18.7808V18.7932V18.8055V18.8179V18.8302V18.8426V18.855V18.8673V18.8797V18.892V18.9044V18.9167V18.9291V18.9414V18.9538V18.9661V18.9785V18.9908V19.0032V19.0155V19.0279V19.0402V19.0525V19.0649V19.0772V19.0896V19.1019V19.1143V19.1266V19.1389V19.1513V19.1636V19.176V19.1883V19.2006V19.213V19.2253V19.2377V19.25V19.2623V19.2747V19.287V19.2994V19.3117V19.324V19.3364V19.3487V19.3611V19.3734V19.3857V19.3981V19.4104V19.4228V19.4351V19.4475V19.4598V19.4721V19.4845V19.4968V19.5092V19.5215V19.5339V19.5462V19.5586V19.5709V19.5833V19.5956V19.608V19.6203V19.6327V19.645V19.6574V19.6698V19.6821V19.6945V19.7068V19.7192V19.7316V19.7439V19.7563V19.7687V19.781V19.7934V19.8058V19.8182V19.8305V19.8429V19.8553V19.8677V19.88V19.8924V19.9048V19.9172V19.9296V19.942V19.9544V19.9668V19.9791V19.9915V20.0039V20.0163V20.0287V20.0412V20.0536V20.066V20.0784V20.0908V20.1032V20.1156V20.128V20.1405V20.1529V20.1653V20.1778V20.1902V20.2026V20.2151V20.2275V20.2399V20.2524V20.2648V20.2773V20.2897V20.3022V20.3146V20.3271V20.3396V20.352V20.3645V20.377V20.3895V20.4019V20.4144V20.4269V20.4394V20.4519V20.4644V20.4769V20.4894V20.5019V20.5144V20.5269V20.5394V20.5519V20.5644V20.577V20.5895V20.602V20.6146V20.6271V20.6396V20.6522V20.6647V20.6773V20.6898V20.7024V20.715V20.7275V20.7401V20.7527V20.7652V20.7778V20.7904V20.803V20.8156V20.8282V20.8408V20.8534V20.866V20.8786V20.8913V20.9039V20.9165V20.9291V20.9418V20.9544V20.9671V20.9797V20.9924V21.005V21.0177V21.0304V21.043V21.0557V21.0684V21.0811V21.0938V21.1065V21.1192V21.1319V21.1446V21.1573V21.17V21.1828V21.1955V21.2082V21.221V21.2337V21.2465V21.2592V21.272V21.2848V21.2975V21.3103V21.3231V21.3359V21.3487V21.3615V21.3743V21.3871V21.3999V21.4127V21.4256V21.4384V21.4512V21.4641V21.4769V21.4898V21.5026V21.5155V21.5284V21.5413V21.5541V21.567V21.5799V21.5928V21.6057V21.6187V21.6316V21.6445V21.6574V21.6704V21.6833V21.6963V21.7092V21.7222V21.7352V21.7482V21.7611V21.7741V21.7871V21.8001V21.8131V21.8262V21.8392V21.8522V21.8652V21.8783V21.8913V21.9044V21.9175V21.9305V21.9436V21.9567V21.9698V21.9829V21.996V22.0091V22.0222V22.0354V22.0485V22.0616V22.0748V22.0879V22.1011V22.1143V22.1275V22.1406V22.1538V22.167V22.1802V22.1935V22.2067V22.2199V22.2331V22.2464V22.2596V22.2729V22.2862V22.2995V22.3127V22.326V22.3393V22.3526V22.366V22.3793V22.3926V22.406V22.4193V22.4327V22.446V22.4594V22.4728V22.4862V22.4996C52.5 23.8791 51.3761 25 49.9943 25H49.8907H49.7873H49.684H49.5809H49.478H49.3752H49.2725H49.17H49.0676H48.9654H48.8633H48.7614H48.6596H48.5579H48.4564H48.355H48.2538H48.1527H48.0518H47.951H47.8503H47.7498H47.6494H47.5491H47.449H47.349H47.2491H47.1494H47.0499H46.9504H46.8511H46.7519H46.6528H46.5539H46.4551H46.3565H46.2579H46.1595H46.0613H45.9631H45.8651H45.7672H45.6694H45.5718H45.4743H45.3769H45.2796H45.1824H45.0854H44.9885H44.8917H44.7951H44.6985H44.6021H44.5058H44.4096H44.3135H44.2176H44.1217H44.026H43.9776C43.9924 25.1647 44 25.3315 44 25.5C44 25.6685 43.9924 25.8353 43.9776 26H44.026H44.1217H44.2176H44.3135H44.4096H44.5058H44.6021H44.6985H44.7951H44.8917H44.9885H45.0854H45.1824H45.2796H45.3769H45.4743H45.5718H45.6694H45.7672H45.8651H45.9631H46.0613H46.1595H46.2579H46.3565H46.4551H46.5539H46.6528H46.7519H46.8511H46.9504H47.0499H47.1494H47.2491H47.349H47.449H47.5491H47.6494H47.7498H47.8503H47.951H48.0518H48.1527H48.2538H48.355H48.4564H48.5579H48.6596H48.7614H48.8633H48.9654H49.0676H49.17H49.2725H49.3752H49.478H49.5809H49.684H49.7873H49.8907H49.9943C51.9261 26 53.5 24.4337 53.5 22.4996V22.4862V22.4728V22.4594V22.446V22.4327V22.4193V22.406V22.3926V22.3793V22.366V22.3526V22.3393V22.326V22.3127V22.2995V22.2862V22.2729V22.2596V22.2464V22.2331V22.2199V22.2067V22.1935V22.1802V22.167V22.1538V22.1406V22.1275V22.1143V22.1011V22.0879V22.0748V22.0616V22.0485V22.0354V22.0222V22.0091V21.996V21.9829V21.9698V21.9567V21.9436V21.9305V21.9175V21.9044V21.8913V21.8783V21.8652V21.8522V21.8392V21.8262V21.8131V21.8001V21.7871V21.7741V21.7611V21.7482V21.7352V21.7222V21.7092V21.6963V21.6833V21.6704V21.6574V21.6445V21.6316V21.6187V21.6057V21.5928V21.5799V21.567V21.5541V21.5413V21.5284V21.5155V21.5026V21.4898V21.4769V21.4641V21.4512V21.4384V21.4256V21.4127V21.3999V21.3871V21.3743V21.3615V21.3487V21.3359V21.3231V21.3103V21.2975V21.2848V21.272V21.2592V21.2465V21.2337V21.221V21.2082V21.1955V21.1828V21.17V21.1573V21.1446V21.1319V21.1192V21.1065V21.0938V21.0811V21.0684V21.0557V21.043V21.0304V21.0177V21.005V20.9924V20.9797V20.9671V20.9544V20.9418V20.9291V20.9165V20.9039V20.8913V20.8786V20.866V20.8534V20.8408V20.8282V20.8156V20.803V20.7904V20.7778V20.7652V20.7527V20.7401V20.7275V20.715V20.7024V20.6898V20.6773V20.6647V20.6522V20.6396V20.6271V20.6146V20.602V20.5895V20.577V20.5644V20.5519V20.5394V20.5269V20.5144V20.5019V20.4894V20.4769V20.4644V20.4519V20.4394V20.4269V20.4144V20.4019V20.3895V20.377V20.3645V20.352V20.3396V20.3271V20.3146V20.3022V20.2897V20.2773V20.2648V20.2524V20.2399V20.2275V20.2151V20.2026V20.1902V20.1778V20.1653V20.1529V20.1405V20.128V20.1156V20.1032V20.0908V20.0784V20.066V20.0536V20.0412V20.0287V20.0163V20.0039V19.9915V19.9791V19.9668V19.9544V19.942V19.9296V19.9172V19.9048V19.8924V19.88V19.8677V19.8553V19.8429V19.8305V19.8182V19.8058V19.7934V19.781V19.7687V19.7563V19.7439V19.7316V19.7192V19.7068V19.6945V19.6821V19.6698V19.6574V19.645V19.6327V19.6203V19.608V19.5956V19.5833V19.5709V19.5586V19.5462V19.5339V19.5215V19.5092V19.4968V19.4845V19.4721V19.4598V19.4475V19.4351V19.4228V19.4104V19.3981V19.3857V19.3734V19.3611V19.3487V19.3364V19.324V19.3117V19.2994V19.287V19.2747V19.2623V19.25V19.2377V19.2253V19.213V19.2006V19.1883V19.176V19.1636V19.1513V19.1389V19.1266V19.1143V19.1019V19.0896V19.0772V19.0649V19.0525V19.0402V19.0279V19.0155V19.0032V18.9908V18.9785V18.9661V18.9538V18.9414V18.9291V18.9167V18.9044V18.892V18.8797V18.8673V18.855V18.8426V18.8302V18.8179V18.8055V18.7932V18.7808V18.7684V18.7561V18.7437V18.7313V18.719V18.7066V18.6942V18.6819V18.6695V18.6571V18.6447V18.6323V18.62V18.6076V18.5952V18.5828V18.5704V18.558V18.5456V18.5332V18.5209V18.5085V18.4961V18.4837V18.4713V18.4588V18.4464V18.434V18.4216V18.4092V18.3968V18.3844V18.372V18.3595V18.3471V18.3347V18.3222V18.3098V18.2974V18.2849V18.2725V18.2601V18.2476V18.2352V18.2227V18.2103V18.1978V18.1854V18.1729V18.1604V18.148V18.1355V18.123V18.1105V18.0981V18.0856V18.0731V18.0606V18.0481V18.0356V18.0231V18.0106V17.9981V17.9856V17.9731V17.9606V17.9481V17.9356V17.923V17.9105V17.898V17.8854V17.8729V17.8604V17.8478V17.8353V17.8227V17.8102V17.7976V17.785V17.7725V17.7599V17.7473V17.7348V17.7222V17.7096V17.697V17.6844V17.6718V17.6592V17.6466V17.634V17.6214V17.6087V17.5961V17.5835V17.5709V17.5582V17.5456V17.5329V17.5203V17.5076V17.495V17.4823V17.4696V17.457V17.4443V17.4316V17.4189V17.4062V17.3935V17.3808V17.3681V17.3554V17.3427V17.33V17.3172V17.3045V17.2918V17.279V17.2663V17.2535V17.2408V17.228V17.2152V17.2025V17.1897V17.1769V17.1641V17.1513V17.1385V17.1257V17.1129V17.1001V17.0873V17.0744V17.0616V17.0488V17.0359V17.0231V17.0102V16.9974V16.9845V16.9716V16.9587V16.9459V16.933V16.9201V16.9072V16.8943V16.8813V16.8684V16.8555V16.8426V16.8296V16.8167V16.8037V16.7908V16.7778V16.7648V16.7518V16.7389V16.7259V16.7129V16.6999V16.6869V16.6738V16.6608V16.6478V16.6348V16.6217V16.6087V16.5956V16.5825V16.5695V16.5564V16.5433V16.5302V16.5171V16.504V16.4909V16.4778V16.4646V16.4515V16.4384V16.4252V16.4121V16.3989V16.3857V16.3725V16.3594V16.3462V16.333V16.3198V16.3065V16.2933V16.2801V16.2669V16.2536V16.2404V16.2271V16.2138V16.2005V16.1873V16.174V16.1607V16.1474V16.134V16.1207V16.1074V16.0941V16.0807V16.0673V16.054V16.0406V16.0272V16.0138V16.0004C53.5 14.0675 51.9331 12.5 50 12.5H26C24.6193 12.5 23.5 11.3807 23.5 10V3.5C23.5 1.567 21.933 0 20 0H8.3877ZM32.948 25H33.0224C33.0076 25.1647 33 25.3315 33 25.5C33 25.6685 33.0076 25.8353 33.0224 26H32.948H32.8621H32.7762H32.6903H32.6045H32.5188H32.433H32.3474H32.2617H32.1761H32.0906H32.005H31.9195H31.8341H31.7487H31.6633H31.5779H31.4926H31.4073H31.3221H31.2368H31.1516H31.0665H30.9813H30.8962H30.8112H30.7261H30.6411H30.5561H30.4712H30.3862H30.3013H30.2164H30.1315H30.0467H29.9619H29.8771H29.7923H29.7076H29.6228H29.5381H29.4534H29.3688H29.2841H29.1995H29.1148H29.0302H28.9457H28.8611H28.7765H28.692H28.6074H28.5229H28.4384H28.3539H28.2694H28.185H28.1005H28.0161H27.9316H27.8472H27.7628H27.6783H27.5939H27.5095H27.4251H27.3407H27.2563H27.1719H27.0875H27.0031H26.9188H26.8344H26.75H26.6656H26.5812H26.4969H26.4125H26.3281H26.2437H26.1593H26.0749H25.9905H25.9061H25.8217H25.7372H25.6528H25.5684H25.4839H25.3995H25.315H25.2306H25.1461H25.0616H24.9771H24.8925H24.808H24.7235H24.6389H24.5543H24.4698H24.3852H24.3005H24.2159H24.1312H24.0466H23.9619H23.8772H23.7924H23.7077H23.6229H23.5381H23.4533H23.3684H23.2836H23.1987H23.1138H23.0288H22.9439H22.8589H22.7739H22.6888H22.6038H22.5187H22.4335H22.3484H22.2632H22.1779H22.0927H22.0074H21.9221H21.8367H21.7513H21.6659H21.5805H21.495H21.4094H21.3239H21.2383H21.1526H21.067H20.9812H20.8955H20.8097H20.7238H20.6379H20.552H20.4661H20.38H20.294H20.2079H20.1217H20.0355H19.9493H19.863H19.7767H19.6903H19.6039H19.5174H19.4309H19.3443H19.2577H19.171H19.0842H18.9975H18.9776C18.9924 25.8353 19 25.6685 19 25.5C19 25.3315 18.9924 25.1647 18.9776 25H18.9975H19.0842H19.171H19.2577H19.3443H19.4309H19.5174H19.6039H19.6903H19.7767H19.863H19.9493H20.0355H20.1217H20.2079H20.294H20.38H20.4661H20.552H20.6379H20.7238H20.8097H20.8955H20.9812H21.067H21.1526H21.2383H21.3239H21.4094H21.495H21.5805H21.6659H21.7513H21.8367H21.9221H22.0074H22.0927H22.1779H22.2632H22.3484H22.4335H22.5187H22.6038H22.6888H22.7739H22.8589H22.9439H23.0288H23.1138H23.1987H23.2836H23.3684H23.4533H23.5381H23.6229H23.7077H23.7924H23.8772H23.9619H24.0466H24.1312H24.2159H24.3005H24.3852H24.4698H24.5543H24.6389H24.7235H24.808H24.8925H24.9771H25.0616H25.1461H25.2306H25.315H25.3995H25.4839H25.5684H25.6528H25.7372H25.8217H25.9061H25.9905H26.0749H26.1593H26.2437H26.3281H26.4125H26.4969H26.5812H26.6656H26.75H26.8344H26.9188H27.0031H27.0875H27.1719H27.2563H27.3407H27.4251H27.5095H27.5939H27.6783H27.7628H27.8472H27.9316H28.0161H28.1005H28.185H28.2694H28.3539H28.4384H28.5229H28.6074H28.692H28.7765H28.8611H28.9457H29.0302H29.1148H29.1995H29.2841H29.3688H29.4534H29.5381H29.6228H29.7076H29.7923H29.8771H29.9619H30.0467H30.1315H30.2164H30.3013H30.3862H30.4712H30.5561H30.6411H30.7261H30.8112H30.8962H30.9813H31.0665H31.1516H31.2368H31.3221H31.4073H31.4926H31.5779H31.6633H31.7487H31.8341H31.9195H32.005H32.0906H32.1761H32.2617H32.3474H32.433H32.5188H32.6045H32.6903H32.7762H32.8621H32.948ZM50 1H28C26.8954 1 26 1.89543 26 3V8C26 9.10457 26.8954 10 28 10H50C51.1046 10 52 9.10457 52 8V3C52 1.89543 51.1046 1 50 1ZM28 0C26.3431 0 25 1.34315 25 3V8C25 9.65685 26.3431 11 28 11H50C51.6569 11 53 9.65685 53 8V3C53 1.34315 51.6569 0 50 0H28ZM12.598 12V5.51082L9.90051 12H12.598ZM13.598 5.51082C13.598 4.41729 12.0944 4.11721 11.6746 5.12697L8.97711 11.6162C8.70334 12.2747 9.18728 13 9.90051 13H12.598C13.1503 13 13.598 12.5523 13.598 12V5.51082Z"/>
</mask>
<path fill-rule="evenodd" clip-rule="evenodd" d="M8.3877 0C7.04164 0 5.81485 0.771937 5.23237 1.98544L0.344669 12.1682C0.11779 12.6408 0 13.1584 0 13.6827V22.5C0 24.4342 1.57399 26 3.50574 26H3.60929H3.7127H3.81595H3.91906H4.02202H4.12483H4.22749H4.33001H4.43238H4.53461H4.63669H4.73863H4.84043H4.94208H5.04359H5.14496H5.24619H5.34728H5.44823H5.54904H5.64971H5.75024H5.85063H5.95089H6.05101H6.151H6.25085H6.35057H6.45015H6.5496H6.64891H6.7481H6.84715H6.94607H7.04486H7.14353H7.24206H7.34046H7.43874H7.53688H7.63491H7.7328H7.83057H7.92821H8.02242C8.00758 25.8353 8 25.6685 8 25.5C8 25.3315 8.00758 25.1647 8.02242 25H7.92821H7.83057H7.7328H7.63491H7.53688H7.43874H7.34046H7.24206H7.14353H7.04486H6.94607H6.84715H6.7481H6.64891H6.5496H6.45015H6.35057H6.25085H6.151H6.05101H5.95089H5.85063H5.75024H5.64971H5.54904H5.44823H5.34728H5.24619H5.14496H5.04359H4.94208H4.84043H4.73863H4.63669H4.53461H4.43238H4.33001H4.22749H4.12483H4.02202H3.91906H3.81595H3.7127H3.60929H3.50574C2.12378 25 1 23.8795 1 22.5V13.6827C1 13.3082 1.08414 12.9385 1.24619 12.6009L6.13389 2.41817C6.54995 1.55138 7.42623 1 8.3877 1H20C21.3807 1 22.5 2.11929 22.5 3.5V10C22.5 11.933 24.067 13.5 26 13.5H50C51.3806 13.5 52.5 14.6196 52.5 16.0004V16.0138V16.0272V16.0406V16.054V16.0673V16.0807V16.0941V16.1074V16.1207V16.134V16.1474V16.1607V16.174V16.1873V16.2005V16.2138V16.2271V16.2404V16.2536V16.2669V16.2801V16.2933V16.3065V16.3198V16.333V16.3462V16.3594V16.3725V16.3857V16.3989V16.4121V16.4252V16.4384V16.4515V16.4646V16.4778V16.4909V16.504V16.5171V16.5302V16.5433V16.5564V16.5695V16.5825V16.5956V16.6087V16.6217V16.6348V16.6478V16.6608V16.6738V16.6869V16.6999V16.7129V16.7259V16.7389V16.7518V16.7648V16.7778V16.7908V16.8037V16.8167V16.8296V16.8426V16.8555V16.8684V16.8813V16.8943V16.9072V16.9201V16.933V16.9459V16.9587V16.9716V16.9845V16.9974V17.0102V17.0231V17.0359V17.0488V17.0616V17.0744V17.0873V17.1001V17.1129V17.1257V17.1385V17.1513V17.1641V17.1769V17.1897V17.2025V17.2152V17.228V17.2408V17.2535V17.2663V17.279V17.2918V17.3045V17.3172V17.33V17.3427V17.3554V17.3681V17.3808V17.3935V17.4062V17.4189V17.4316V17.4443V17.457V17.4696V17.4823V17.495V17.5076V17.5203V17.5329V17.5456V17.5582V17.5709V17.5835V17.5961V17.6087V17.6214V17.634V17.6466V17.6592V17.6718V17.6844V17.697V17.7096V17.7222V17.7348V17.7473V17.7599V17.7725V17.785V17.7976V17.8102V17.8227V17.8353V17.8478V17.8604V17.8729V17.8854V17.898V17.9105V17.923V17.9356V17.9481V17.9606V17.9731V17.9856V17.9981V18.0106V18.0231V18.0356V18.0481V18.0606V18.0731V18.0856V18.0981V18.1105V18.123V18.1355V18.148V18.1604V18.1729V18.1854V18.1978V18.2103V18.2227V18.2352V18.2476V18.2601V18.2725V18.2849V18.2974V18.3098V18.3222V18.3347V18.3471V18.3595V18.372V18.3844V18.3968V18.4092V18.4216V18.434V18.4464V18.4588V18.4713V18.4837V18.4961V18.5085V18.5209V18.5332V18.5456V18.558V18.5704V18.5828V18.5952V18.6076V18.62V18.6323V18.6447V18.6571V18.6695V18.6819V18.6942V18.7066V18.719V18.7313V18.7437V18.7561V18.7684V18.7808V18.7932V18.8055V18.8179V18.8302V18.8426V18.855V18.8673V18.8797V18.892V18.9044V18.9167V18.9291V18.9414V18.9538V18.9661V18.9785V18.9908V19.0032V19.0155V19.0279V19.0402V19.0525V19.0649V19.0772V19.0896V19.1019V19.1143V19.1266V19.1389V19.1513V19.1636V19.176V19.1883V19.2006V19.213V19.2253V19.2377V19.25V19.2623V19.2747V19.287V19.2994V19.3117V19.324V19.3364V19.3487V19.3611V19.3734V19.3857V19.3981V19.4104V19.4228V19.4351V19.4475V19.4598V19.4721V19.4845V19.4968V19.5092V19.5215V19.5339V19.5462V19.5586V19.5709V19.5833V19.5956V19.608V19.6203V19.6327V19.645V19.6574V19.6698V19.6821V19.6945V19.7068V19.7192V19.7316V19.7439V19.7563V19.7687V19.781V19.7934V19.8058V19.8182V19.8305V19.8429V19.8553V19.8677V19.88V19.8924V19.9048V19.9172V19.9296V19.942V19.9544V19.9668V19.9791V19.9915V20.0039V20.0163V20.0287V20.0412V20.0536V20.066V20.0784V20.0908V20.1032V20.1156V20.128V20.1405V20.1529V20.1653V20.1778V20.1902V20.2026V20.2151V20.2275V20.2399V20.2524V20.2648V20.2773V20.2897V20.3022V20.3146V20.3271V20.3396V20.352V20.3645V20.377V20.3895V20.4019V20.4144V20.4269V20.4394V20.4519V20.4644V20.4769V20.4894V20.5019V20.5144V20.5269V20.5394V20.5519V20.5644V20.577V20.5895V20.602V20.6146V20.6271V20.6396V20.6522V20.6647V20.6773V20.6898V20.7024V20.715V20.7275V20.7401V20.7527V20.7652V20.7778V20.7904V20.803V20.8156V20.8282V20.8408V20.8534V20.866V20.8786V20.8913V20.9039V20.9165V20.9291V20.9418V20.9544V20.9671V20.9797V20.9924V21.005V21.0177V21.0304V21.043V21.0557V21.0684V21.0811V21.0938V21.1065V21.1192V21.1319V21.1446V21.1573V21.17V21.1828V21.1955V21.2082V21.221V21.2337V21.2465V21.2592V21.272V21.2848V21.2975V21.3103V21.3231V21.3359V21.3487V21.3615V21.3743V21.3871V21.3999V21.4127V21.4256V21.4384V21.4512V21.4641V21.4769V21.4898V21.5026V21.5155V21.5284V21.5413V21.5541V21.567V21.5799V21.5928V21.6057V21.6187V21.6316V21.6445V21.6574V21.6704V21.6833V21.6963V21.7092V21.7222V21.7352V21.7482V21.7611V21.7741V21.7871V21.8001V21.8131V21.8262V21.8392V21.8522V21.8652V21.8783V21.8913V21.9044V21.9175V21.9305V21.9436V21.9567V21.9698V21.9829V21.996V22.0091V22.0222V22.0354V22.0485V22.0616V22.0748V22.0879V22.1011V22.1143V22.1275V22.1406V22.1538V22.167V22.1802V22.1935V22.2067V22.2199V22.2331V22.2464V22.2596V22.2729V22.2862V22.2995V22.3127V22.326V22.3393V22.3526V22.366V22.3793V22.3926V22.406V22.4193V22.4327V22.446V22.4594V22.4728V22.4862V22.4996C52.5 23.8791 51.3761 25 49.9943 25H49.8907H49.7873H49.684H49.5809H49.478H49.3752H49.2725H49.17H49.0676H48.9654H48.8633H48.7614H48.6596H48.5579H48.4564H48.355H48.2538H48.1527H48.0518H47.951H47.8503H47.7498H47.6494H47.5491H47.449H47.349H47.2491H47.1494H47.0499H46.9504H46.8511H46.7519H46.6528H46.5539H46.4551H46.3565H46.2579H46.1595H46.0613H45.9631H45.8651H45.7672H45.6694H45.5718H45.4743H45.3769H45.2796H45.1824H45.0854H44.9885H44.8917H44.7951H44.6985H44.6021H44.5058H44.4096H44.3135H44.2176H44.1217H44.026H43.9776C43.9924 25.1647 44 25.3315 44 25.5C44 25.6685 43.9924 25.8353 43.9776 26H44.026H44.1217H44.2176H44.3135H44.4096H44.5058H44.6021H44.6985H44.7951H44.8917H44.9885H45.0854H45.1824H45.2796H45.3769H45.4743H45.5718H45.6694H45.7672H45.8651H45.9631H46.0613H46.1595H46.2579H46.3565H46.4551H46.5539H46.6528H46.7519H46.8511H46.9504H47.0499H47.1494H47.2491H47.349H47.449H47.5491H47.6494H47.7498H47.8503H47.951H48.0518H48.1527H48.2538H48.355H48.4564H48.5579H48.6596H48.7614H48.8633H48.9654H49.0676H49.17H49.2725H49.3752H49.478H49.5809H49.684H49.7873H49.8907H49.9943C51.9261 26 53.5 24.4337 53.5 22.4996V22.4862V22.4728V22.4594V22.446V22.4327V22.4193V22.406V22.3926V22.3793V22.366V22.3526V22.3393V22.326V22.3127V22.2995V22.2862V22.2729V22.2596V22.2464V22.2331V22.2199V22.2067V22.1935V22.1802V22.167V22.1538V22.1406V22.1275V22.1143V22.1011V22.0879V22.0748V22.0616V22.0485V22.0354V22.0222V22.0091V21.996V21.9829V21.9698V21.9567V21.9436V21.9305V21.9175V21.9044V21.8913V21.8783V21.8652V21.8522V21.8392V21.8262V21.8131V21.8001V21.7871V21.7741V21.7611V21.7482V21.7352V21.7222V21.7092V21.6963V21.6833V21.6704V21.6574V21.6445V21.6316V21.6187V21.6057V21.5928V21.5799V21.567V21.5541V21.5413V21.5284V21.5155V21.5026V21.4898V21.4769V21.4641V21.4512V21.4384V21.4256V21.4127V21.3999V21.3871V21.3743V21.3615V21.3487V21.3359V21.3231V21.3103V21.2975V21.2848V21.272V21.2592V21.2465V21.2337V21.221V21.2082V21.1955V21.1828V21.17V21.1573V21.1446V21.1319V21.1192V21.1065V21.0938V21.0811V21.0684V21.0557V21.043V21.0304V21.0177V21.005V20.9924V20.9797V20.9671V20.9544V20.9418V20.9291V20.9165V20.9039V20.8913V20.8786V20.866V20.8534V20.8408V20.8282V20.8156V20.803V20.7904V20.7778V20.7652V20.7527V20.7401V20.7275V20.715V20.7024V20.6898V20.6773V20.6647V20.6522V20.6396V20.6271V20.6146V20.602V20.5895V20.577V20.5644V20.5519V20.5394V20.5269V20.5144V20.5019V20.4894V20.4769V20.4644V20.4519V20.4394V20.4269V20.4144V20.4019V20.3895V20.377V20.3645V20.352V20.3396V20.3271V20.3146V20.3022V20.2897V20.2773V20.2648V20.2524V20.2399V20.2275V20.2151V20.2026V20.1902V20.1778V20.1653V20.1529V20.1405V20.128V20.1156V20.1032V20.0908V20.0784V20.066V20.0536V20.0412V20.0287V20.0163V20.0039V19.9915V19.9791V19.9668V19.9544V19.942V19.9296V19.9172V19.9048V19.8924V19.88V19.8677V19.8553V19.8429V19.8305V19.8182V19.8058V19.7934V19.781V19.7687V19.7563V19.7439V19.7316V19.7192V19.7068V19.6945V19.6821V19.6698V19.6574V19.645V19.6327V19.6203V19.608V19.5956V19.5833V19.5709V19.5586V19.5462V19.5339V19.5215V19.5092V19.4968V19.4845V19.4721V19.4598V19.4475V19.4351V19.4228V19.4104V19.3981V19.3857V19.3734V19.3611V19.3487V19.3364V19.324V19.3117V19.2994V19.287V19.2747V19.2623V19.25V19.2377V19.2253V19.213V19.2006V19.1883V19.176V19.1636V19.1513V19.1389V19.1266V19.1143V19.1019V19.0896V19.0772V19.0649V19.0525V19.0402V19.0279V19.0155V19.0032V18.9908V18.9785V18.9661V18.9538V18.9414V18.9291V18.9167V18.9044V18.892V18.8797V18.8673V18.855V18.8426V18.8302V18.8179V18.8055V18.7932V18.7808V18.7684V18.7561V18.7437V18.7313V18.719V18.7066V18.6942V18.6819V18.6695V18.6571V18.6447V18.6323V18.62V18.6076V18.5952V18.5828V18.5704V18.558V18.5456V18.5332V18.5209V18.5085V18.4961V18.4837V18.4713V18.4588V18.4464V18.434V18.4216V18.4092V18.3968V18.3844V18.372V18.3595V18.3471V18.3347V18.3222V18.3098V18.2974V18.2849V18.2725V18.2601V18.2476V18.2352V18.2227V18.2103V18.1978V18.1854V18.1729V18.1604V18.148V18.1355V18.123V18.1105V18.0981V18.0856V18.0731V18.0606V18.0481V18.0356V18.0231V18.0106V17.9981V17.9856V17.9731V17.9606V17.9481V17.9356V17.923V17.9105V17.898V17.8854V17.8729V17.8604V17.8478V17.8353V17.8227V17.8102V17.7976V17.785V17.7725V17.7599V17.7473V17.7348V17.7222V17.7096V17.697V17.6844V17.6718V17.6592V17.6466V17.634V17.6214V17.6087V17.5961V17.5835V17.5709V17.5582V17.5456V17.5329V17.5203V17.5076V17.495V17.4823V17.4696V17.457V17.4443V17.4316V17.4189V17.4062V17.3935V17.3808V17.3681V17.3554V17.3427V17.33V17.3172V17.3045V17.2918V17.279V17.2663V17.2535V17.2408V17.228V17.2152V17.2025V17.1897V17.1769V17.1641V17.1513V17.1385V17.1257V17.1129V17.1001V17.0873V17.0744V17.0616V17.0488V17.0359V17.0231V17.0102V16.9974V16.9845V16.9716V16.9587V16.9459V16.933V16.9201V16.9072V16.8943V16.8813V16.8684V16.8555V16.8426V16.8296V16.8167V16.8037V16.7908V16.7778V16.7648V16.7518V16.7389V16.7259V16.7129V16.6999V16.6869V16.6738V16.6608V16.6478V16.6348V16.6217V16.6087V16.5956V16.5825V16.5695V16.5564V16.5433V16.5302V16.5171V16.504V16.4909V16.4778V16.4646V16.4515V16.4384V16.4252V16.4121V16.3989V16.3857V16.3725V16.3594V16.3462V16.333V16.3198V16.3065V16.2933V16.2801V16.2669V16.2536V16.2404V16.2271V16.2138V16.2005V16.1873V16.174V16.1607V16.1474V16.134V16.1207V16.1074V16.0941V16.0807V16.0673V16.054V16.0406V16.0272V16.0138V16.0004C53.5 14.0675 51.9331 12.5 50 12.5H26C24.6193 12.5 23.5 11.3807 23.5 10V3.5C23.5 1.567 21.933 0 20 0H8.3877ZM32.948 25H33.0224C33.0076 25.1647 33 25.3315 33 25.5C33 25.6685 33.0076 25.8353 33.0224 26H32.948H32.8621H32.7762H32.6903H32.6045H32.5188H32.433H32.3474H32.2617H32.1761H32.0906H32.005H31.9195H31.8341H31.7487H31.6633H31.5779H31.4926H31.4073H31.3221H31.2368H31.1516H31.0665H30.9813H30.8962H30.8112H30.7261H30.6411H30.5561H30.4712H30.3862H30.3013H30.2164H30.1315H30.0467H29.9619H29.8771H29.7923H29.7076H29.6228H29.5381H29.4534H29.3688H29.2841H29.1995H29.1148H29.0302H28.9457H28.8611H28.7765H28.692H28.6074H28.5229H28.4384H28.3539H28.2694H28.185H28.1005H28.0161H27.9316H27.8472H27.7628H27.6783H27.5939H27.5095H27.4251H27.3407H27.2563H27.1719H27.0875H27.0031H26.9188H26.8344H26.75H26.6656H26.5812H26.4969H26.4125H26.3281H26.2437H26.1593H26.0749H25.9905H25.9061H25.8217H25.7372H25.6528H25.5684H25.4839H25.3995H25.315H25.2306H25.1461H25.0616H24.9771H24.8925H24.808H24.7235H24.6389H24.5543H24.4698H24.3852H24.3005H24.2159H24.1312H24.0466H23.9619H23.8772H23.7924H23.7077H23.6229H23.5381H23.4533H23.3684H23.2836H23.1987H23.1138H23.0288H22.9439H22.8589H22.7739H22.6888H22.6038H22.5187H22.4335H22.3484H22.2632H22.1779H22.0927H22.0074H21.9221H21.8367H21.7513H21.6659H21.5805H21.495H21.4094H21.3239H21.2383H21.1526H21.067H20.9812H20.8955H20.8097H20.7238H20.6379H20.552H20.4661H20.38H20.294H20.2079H20.1217H20.0355H19.9493H19.863H19.7767H19.6903H19.6039H19.5174H19.4309H19.3443H19.2577H19.171H19.0842H18.9975H18.9776C18.9924 25.8353 19 25.6685 19 25.5C19 25.3315 18.9924 25.1647 18.9776 25H18.9975H19.0842H19.171H19.2577H19.3443H19.4309H19.5174H19.6039H19.6903H19.7767H19.863H19.9493H20.0355H20.1217H20.2079H20.294H20.38H20.4661H20.552H20.6379H20.7238H20.8097H20.8955H20.9812H21.067H21.1526H21.2383H21.3239H21.4094H21.495H21.5805H21.6659H21.7513H21.8367H21.9221H22.0074H22.0927H22.1779H22.2632H22.3484H22.4335H22.5187H22.6038H22.6888H22.7739H22.8589H22.9439H23.0288H23.1138H23.1987H23.2836H23.3684H23.4533H23.5381H23.6229H23.7077H23.7924H23.8772H23.9619H24.0466H24.1312H24.2159H24.3005H24.3852H24.4698H24.5543H24.6389H24.7235H24.808H24.8925H24.9771H25.0616H25.1461H25.2306H25.315H25.3995H25.4839H25.5684H25.6528H25.7372H25.8217H25.9061H25.9905H26.0749H26.1593H26.2437H26.3281H26.4125H26.4969H26.5812H26.6656H26.75H26.8344H26.9188H27.0031H27.0875H27.1719H27.2563H27.3407H27.4251H27.5095H27.5939H27.6783H27.7628H27.8472H27.9316H28.0161H28.1005H28.185H28.2694H28.3539H28.4384H28.5229H28.6074H28.692H28.7765H28.8611H28.9457H29.0302H29.1148H29.1995H29.2841H29.3688H29.4534H29.5381H29.6228H29.7076H29.7923H29.8771H29.9619H30.0467H30.1315H30.2164H30.3013H30.3862H30.4712H30.5561H30.6411H30.7261H30.8112H30.8962H30.9813H31.0665H31.1516H31.2368H31.3221H31.4073H31.4926H31.5779H31.6633H31.7487H31.8341H31.9195H32.005H32.0906H32.1761H32.2617H32.3474H32.433H32.5188H32.6045H32.6903H32.7762H32.8621H32.948ZM50 1H28C26.8954 1 26 1.89543 26 3V8C26 9.10457 26.8954 10 28 10H50C51.1046 10 52 9.10457 52 8V3C52 1.89543 51.1046 1 50 1ZM28 0C26.3431 0 25 1.34315 25 3V8C25 9.65685 26.3431 11 28 11H50C51.6569 11 53 9.65685 53 8V3C53 1.34315 51.6569 0 50 0H28ZM12.598 12V5.51082L9.90051 12H12.598ZM13.598 5.51082C13.598 4.41729 12.0944 4.11721 11.6746 5.12697L8.97711 11.6162C8.70334 12.2747 9.18728 13 9.90051 13H12.598C13.1503 13 13.598 12.5523 13.598 12V5.51082Z" fill="#E4DFD3"/>
<path d="M5.23237 1.98544L6.13389 2.41817L5.23237 1.98544ZM0.344669 12.1682L-0.556854 11.7354L-0.556854 11.7354L0.344669 12.1682ZM8.02242 26V27H9.11659L9.01839 25.9102L8.02242 26ZM8.02242 25L9.01839 25.0898L9.11659 24H8.02242V25ZM1.24619 12.6009L0.34467 12.1682L0.34467 12.1682L1.24619 12.6009ZM6.13389 2.41817L7.03542 2.8509L7.03542 2.8509L6.13389 2.41817ZM43.9776 25V24H42.8834L42.9816 25.0897L43.9776 25ZM43.9776 26L42.9816 25.9103L42.8834 27H43.9776V26ZM33.0224 25L34.0184 25.0897L34.1166 24H33.0224V25ZM33.0224 26V27H34.1166L34.0184 25.9103L33.0224 26ZM18.9776 26L17.9816 25.9102L17.8834 27H18.9776V26ZM18.9776 25V24H17.8834L17.9816 25.0898L18.9776 25ZM12.598 5.51082H13.598L11.6746 5.12697L12.598 5.51082ZM12.598 12V13H13.598V12H12.598ZM9.90051 12L8.97711 11.6162L8.40185 13H9.90051V12ZM11.6746 5.12697L10.7512 4.74312L10.7512 4.74312L11.6746 5.12697ZM8.97711 11.6162L8.05371 11.2323L8.05371 11.2323L8.97711 11.6162ZM6.13389 2.41817C6.54995 1.55138 7.42623 1 8.3877 1V-1C6.65705 -1 5.07975 -0.00750888 4.33085 1.55271L6.13389 2.41817ZM1.24619 12.6009L6.13389 2.41817L4.33085 1.55271L-0.556854 11.7354L1.24619 12.6009ZM1 13.6827C1 13.3082 1.08414 12.9385 1.24619 12.6009L-0.556854 11.7354C-0.848555 12.3431 -1 13.0086 -1 13.6827H1ZM1 22.5V13.6827H-1V22.5H1ZM3.50574 25C2.12367 25 1 23.8794 1 22.5H-1C-1 24.9891 1.0243 27 3.50574 27V25ZM3.60929 25H3.50574V27H3.60929V25ZM3.7127 25H3.60929V27H3.7127V25ZM3.81595 25H3.7127V27H3.81595V25ZM3.91906 25H3.81595V27H3.91906V25ZM4.02202 25H3.91906V27H4.02202V25ZM4.12483 25H4.02202V27H4.12483V25ZM4.22749 25H4.12483V27H4.22749V25ZM4.33001 25H4.22749V27H4.33001V25ZM4.43238 25H4.33001V27H4.43238V25ZM4.53461 25H4.43238V27H4.53461V25ZM4.63669 25H4.53461V27H4.63669V25ZM4.73863 25H4.63669V27H4.73863V25ZM4.84043 25H4.73863V27H4.84043V25ZM4.94208 25H4.84043V27H4.94208V25ZM5.04359 25H4.94208V27H5.04359V25ZM5.14496 25H5.04359V27H5.14496V25ZM5.24619 25H5.14496V27H5.24619V25ZM5.34728 25H5.24619V27H5.34728V25ZM5.44823 25H5.34728V27H5.44823V25ZM5.54904 25H5.44823V27H5.54904V25ZM5.64971 25H5.54904V27H5.64971V25ZM5.75024 25H5.64971V27H5.75024V25ZM5.85063 25H5.75024V27H5.85063V25ZM5.95089 25H5.85063V27H5.95089V25ZM6.05101 25H5.95089V27H6.05101V25ZM6.151 25H6.05101V27H6.151V25ZM6.25085 25H6.151V27H6.25085V25ZM6.35057 25H6.25085V27H6.35057V25ZM6.45015 25H6.35057V27H6.45015V25ZM6.5496 25H6.45015V27H6.5496V25ZM6.64891 25H6.5496V27H6.64891V25ZM6.7481 25H6.64891V27H6.7481V25ZM6.84715 25H6.7481V27H6.84715V25ZM6.94607 25H6.84715V27H6.94607V25ZM7.04486 25H6.94607V27H7.04486V25ZM7.14353 25H7.04486V27H7.14353V25ZM7.24206 25H7.14353V27H7.24206V25ZM7.34046 25H7.24206V27H7.34046V25ZM7.43874 25H7.34046V27H7.43874V25ZM7.53688 25H7.43874V27H7.53688V25ZM7.63491 25H7.53688V27H7.63491V25ZM7.7328 25H7.63491V27H7.7328V25ZM7.83057 25H7.7328V27H7.83057V25ZM7.92821 25H7.83057V27H7.92821V25ZM8.02242 25H7.92821V27H8.02242V25ZM7 25.5C7 25.6985 7.00893 25.8953 7.02646 26.0898L9.01839 25.9102C9.00623 25.7754 9 25.6385 9 25.5H7ZM7.02646 24.9102C7.00893 25.1047 7 25.3015 7 25.5H9C9 25.3615 9.00623 25.2246 9.01839 25.0898L7.02646 24.9102ZM7.92821 26H8.02242V24H7.92821V26ZM7.83057 26H7.92821V24H7.83057V26ZM7.7328 26H7.83057V24H7.7328V26ZM7.63491 26H7.7328V24H7.63491V26ZM7.53688 26H7.63491V24H7.53688V26ZM7.43874 26H7.53688V24H7.43874V26ZM7.34046 26H7.43874V24H7.34046V26ZM7.24206 26H7.34046V24H7.24206V26ZM7.14353 26H7.24206V24H7.14353V26ZM7.04486 26H7.14353V24H7.04486V26ZM6.94607 26H7.04486V24H6.94607V26ZM6.84715 26H6.94607V24H6.84715V26ZM6.7481 26H6.84715V24H6.7481V26ZM6.64891 26H6.7481V24H6.64891V26ZM6.5496 26H6.64891V24H6.5496V26ZM6.45015 26H6.5496V24H6.45015V26ZM6.35057 26H6.45015V24H6.35057V26ZM6.25085 26H6.35057V24H6.25085V26ZM6.151 26H6.25085V24H6.151V26ZM6.05101 26H6.151V24H6.05101V26ZM5.95089 26H6.05101V24H5.95089V26ZM5.85063 26H5.95089V24H5.85063V26ZM5.75024 26H5.85063V24H5.75024V26ZM5.64971 26H5.75024V24H5.64971V26ZM5.54904 26H5.64971V24H5.54904V26ZM5.44823 26H5.54904V24H5.44823V26ZM5.34728 26H5.44823V24H5.34728V26ZM5.24619 26H5.34728V24H5.24619V26ZM5.14496 26H5.24619V24H5.14496V26ZM5.04359 26H5.14496V24H5.04359V26ZM4.94208 26H5.04359V24H4.94208V26ZM4.84043 26H4.94208V24H4.84043V26ZM4.73863 26H4.84043V24H4.73863V26ZM4.63669 26H4.73863V24H4.63669V26ZM4.53461 26H4.63669V24H4.53461V26ZM4.43238 26H4.53461V24H4.43238V26ZM4.33001 26H4.43238V24H4.33001V26ZM4.22749 26H4.33001V24H4.22749V26ZM4.12483 26H4.22749V24H4.12483V26ZM4.02202 26H4.12483V24H4.02202V26ZM3.91906 26H4.02202V24H3.91906V26ZM3.81595 26H3.91906V24H3.81595V26ZM3.7127 26H3.81595V24H3.7127V26ZM3.60929 26H3.7127V24H3.60929V26ZM3.50574 26H3.60929V24H3.50574V26ZM0 22.5C0 24.4341 1.57384 26 3.50574 26V24C2.67373 24 2 23.3248 2 22.5H0ZM0 13.6827V22.5H2V13.6827H0ZM0.34467 12.1682C0.11779 12.6408 0 13.1584 0 13.6827H2C2 13.458 2.05048 13.2362 2.14772 13.0336L0.34467 12.1682ZM5.23237 1.98544L0.34467 12.1682L2.14772 13.0336L7.03542 2.8509L5.23237 1.98544ZM8.3877 0C7.04164 0 5.81485 0.771937 5.23237 1.98544L7.03542 2.8509C7.28505 2.33083 7.81082 2 8.3877 2V0ZM20 0H8.3877V2H20V0ZM23.5 3.5C23.5 1.567 21.933 0 20 0V2C20.8284 2 21.5 2.67157 21.5 3.5H23.5ZM23.5 10V3.5H21.5V10H23.5ZM26 12.5C24.6193 12.5 23.5 11.3807 23.5 10H21.5C21.5 12.4853 23.5147 14.5 26 14.5V12.5ZM50 12.5H26V14.5H50V12.5ZM53.5 16.0004C53.5 14.0675 51.9331 12.5 50 12.5V14.5C50.8282 14.5 51.5 15.1717 51.5 16.0004H53.5ZM53.5 16.0138V16.0004H51.5V16.0138H53.5ZM53.5 16.0272V16.0138H51.5V16.0272H53.5ZM53.5 16.0406V16.0272H51.5V16.0406H53.5ZM53.5 16.054V16.0406H51.5V16.054H53.5ZM53.5 16.0673V16.054H51.5V16.0673H53.5ZM53.5 16.0807V16.0673H51.5V16.0807H53.5ZM53.5 16.0941V16.0807H51.5V16.0941H53.5ZM53.5 16.1074V16.0941H51.5V16.1074H53.5ZM53.5 16.1207V16.1074H51.5V16.1207H53.5ZM53.5 16.134V16.1207H51.5V16.134H53.5ZM53.5 16.1474V16.134H51.5V16.1474H53.5ZM53.5 16.1607V16.1474H51.5V16.1607H53.5ZM53.5 16.174V16.1607H51.5V16.174H53.5ZM53.5 16.1873V16.174H51.5V16.1873H53.5ZM53.5 16.2005V16.1873H51.5V16.2005H53.5ZM53.5 16.2138V16.2005H51.5V16.2138H53.5ZM53.5 16.2271V16.2138H51.5V16.2271H53.5ZM53.5 16.2404V16.2271H51.5V16.2404H53.5ZM53.5 16.2536V16.2404H51.5V16.2536H53.5ZM53.5 16.2669V16.2536H51.5V16.2669H53.5ZM53.5 16.2801V16.2669H51.5V16.2801H53.5ZM53.5 16.2933V16.2801H51.5V16.2933H53.5ZM53.5 16.3065V16.2933H51.5V16.3065H53.5ZM53.5 16.3198V16.3065H51.5V16.3198H53.5ZM53.5 16.333V16.3198H51.5V16.333H53.5ZM53.5 16.3462V16.333H51.5V16.3462H53.5ZM53.5 16.3594V16.3462H51.5V16.3594H53.5ZM53.5 16.3725V16.3594H51.5V16.3725H53.5ZM53.5 16.3857V16.3725H51.5V16.3857H53.5ZM53.5 16.3989V16.3857H51.5V16.3989H53.5ZM53.5 16.4121V16.3989H51.5V16.4121H53.5ZM53.5 16.4252V16.4121H51.5V16.4252H53.5ZM53.5 16.4384V16.4252H51.5V16.4384H53.5ZM53.5 16.4515V16.4384H51.5V16.4515H53.5ZM53.5 16.4646V16.4515H51.5V16.4646H53.5ZM53.5 16.4778V16.4646H51.5V16.4778H53.5ZM53.5 16.4909V16.4778H51.5V16.4909H53.5ZM53.5 16.504V16.4909H51.5V16.504H53.5ZM53.5 16.5171V16.504H51.5V16.5171H53.5ZM53.5 16.5302V16.5171H51.5V16.5302H53.5ZM53.5 16.5433V16.5302H51.5V16.5433H53.5ZM53.5 16.5564V16.5433H51.5V16.5564H53.5ZM53.5 16.5695V16.5564H51.5V16.5695H53.5ZM53.5 16.5825V16.5695H51.5V16.5825H53.5ZM53.5 16.5956V16.5825H51.5V16.5956H53.5ZM53.5 16.6087V16.5956H51.5V16.6087H53.5ZM53.5 16.6217V16.6087H51.5V16.6217H53.5ZM53.5 16.6348V16.6217H51.5V16.6348H53.5ZM53.5 16.6478V16.6348H51.5V16.6478H53.5ZM53.5 16.6608V16.6478H51.5V16.6608H53.5ZM53.5 16.6738V16.6608H51.5V16.6738H53.5ZM53.5 16.6869V16.6738H51.5V16.6869H53.5ZM53.5 16.6999V16.6869H51.5V16.6999H53.5ZM53.5 16.7129V16.6999H51.5V16.7129H53.5ZM53.5 16.7259V16.7129H51.5V16.7259H53.5ZM53.5 16.7389V16.7259H51.5V16.7389H53.5ZM53.5 16.7518V16.7389H51.5V16.7518H53.5ZM53.5 16.7648V16.7518H51.5V16.7648H53.5ZM53.5 16.7778V16.7648H51.5V16.7778H53.5ZM53.5 16.7908V16.7778H51.5V16.7908H53.5ZM53.5 16.8037V16.7908H51.5V16.8037H53.5ZM53.5 16.8167V16.8037H51.5V16.8167H53.5ZM53.5 16.8296V16.8167H51.5V16.8296H53.5ZM53.5 16.8426V16.8296H51.5V16.8426H53.5ZM53.5 16.8555V16.8426H51.5V16.8555H53.5ZM53.5 16.8684V16.8555H51.5V16.8684H53.5ZM53.5 16.8813V16.8684H51.5V16.8813H53.5ZM53.5 16.8943V16.8813H51.5V16.8943H53.5ZM53.5 16.9072V16.8943H51.5V16.9072H53.5ZM53.5 16.9201V16.9072H51.5V16.9201H53.5ZM53.5 16.933V16.9201H51.5V16.933H53.5ZM53.5 16.9459V16.933H51.5V16.9459H53.5ZM53.5 16.9587V16.9459H51.5V16.9587H53.5ZM53.5 16.9716V16.9587H51.5V16.9716H53.5ZM53.5 16.9845V16.9716H51.5V16.9845H53.5ZM53.5 16.9974V16.9845H51.5V16.9974H53.5ZM53.5 17.0102V16.9974H51.5V17.0102H53.5ZM53.5 17.0231V17.0102H51.5V17.0231H53.5ZM53.5 17.0359V17.0231H51.5V17.0359H53.5ZM53.5 17.0488V17.0359H51.5V17.0488H53.5ZM53.5 17.0616V17.0488H51.5V17.0616H53.5ZM53.5 17.0744V17.0616H51.5V17.0744H53.5ZM53.5 17.0873V17.0744H51.5V17.0873H53.5ZM53.5 17.1001V17.0873H51.5V17.1001H53.5ZM53.5 17.1129V17.1001H51.5V17.1129H53.5ZM53.5 17.1257V17.1129H51.5V17.1257H53.5ZM53.5 17.1385V17.1257H51.5V17.1385H53.5ZM53.5 17.1513V17.1385H51.5V17.1513H53.5ZM53.5 17.1641V17.1513H51.5V17.1641H53.5ZM53.5 17.1769V17.1641H51.5V17.1769H53.5ZM53.5 17.1897V17.1769H51.5V17.1897H53.5ZM53.5 17.2025V17.1897H51.5V17.2025H53.5ZM53.5 17.2152V17.2025H51.5V17.2152H53.5ZM53.5 17.228V17.2152H51.5V17.228H53.5ZM53.5 17.2408V17.228H51.5V17.2408H53.5ZM53.5 17.2535V17.2408H51.5V17.2535H53.5ZM53.5 17.2663V17.2535H51.5V17.2663H53.5ZM53.5 17.279V17.2663H51.5V17.279H53.5ZM53.5 17.2918V17.279H51.5V17.2918H53.5ZM53.5 17.3045V17.2918H51.5V17.3045H53.5ZM53.5 17.3172V17.3045H51.5V17.3172H53.5ZM53.5 17.33V17.3172H51.5V17.33H53.5ZM53.5 17.3427V17.33H51.5V17.3427H53.5ZM53.5 17.3554V17.3427H51.5V17.3554H53.5ZM53.5 17.3681V17.3554H51.5V17.3681H53.5ZM53.5 17.3808V17.3681H51.5V17.3808H53.5ZM53.5 17.3935V17.3808H51.5V17.3935H53.5ZM53.5 17.4062V17.3935H51.5V17.4062H53.5ZM53.5 17.4189V17.4062H51.5V17.4189H53.5ZM53.5 17.4316V17.4189H51.5V17.4316H53.5ZM53.5 17.4443V17.4316H51.5V17.4443H53.5ZM53.5 17.457V17.4443H51.5V17.457H53.5ZM53.5 17.4696V17.457H51.5V17.4696H53.5ZM53.5 17.4823V17.4696H51.5V17.4823H53.5ZM53.5 17.495V17.4823H51.5V17.495H53.5ZM53.5 17.5076V17.495H51.5V17.5076H53.5ZM53.5 17.5203V17.5076H51.5V17.5203H53.5ZM53.5 17.5329V17.5203H51.5V17.5329H53.5ZM53.5 17.5456V17.5329H51.5V17.5456H53.5ZM53.5 17.5582V17.5456H51.5V17.5582H53.5ZM53.5 17.5709V17.5582H51.5V17.5709H53.5ZM53.5 17.5835V17.5709H51.5V17.5835H53.5ZM53.5 17.5961V17.5835H51.5V17.5961H53.5ZM53.5 17.6087V17.5961H51.5V17.6087H53.5ZM53.5 17.6214V17.6087H51.5V17.6214H53.5ZM53.5 17.634V17.6214H51.5V17.634H53.5ZM53.5 17.6466V17.634H51.5V17.6466H53.5ZM53.5 17.6592V17.6466H51.5V17.6592H53.5ZM53.5 17.6718V17.6592H51.5V17.6718H53.5ZM53.5 17.6844V17.6718H51.5V17.6844H53.5ZM53.5 17.697V17.6844H51.5V17.697H53.5ZM53.5 17.7096V17.697H51.5V17.7096H53.5ZM53.5 17.7222V17.7096H51.5V17.7222H53.5ZM53.5 17.7348V17.7222H51.5V17.7348H53.5ZM53.5 17.7473V17.7348H51.5V17.7473H53.5ZM53.5 17.7599V17.7473H51.5V17.7599H53.5ZM53.5 17.7725V17.7599H51.5V17.7725H53.5ZM53.5 17.785V17.7725H51.5V17.785H53.5ZM53.5 17.7976V17.785H51.5V17.7976H53.5ZM53.5 17.8102V17.7976H51.5V17.8102H53.5ZM53.5 17.8227V17.8102H51.5V17.8227H53.5ZM53.5 17.8353V17.8227H51.5V17.8353H53.5ZM53.5 17.8478V17.8353H51.5V17.8478H53.5ZM53.5 17.8604V17.8478H51.5V17.8604H53.5ZM53.5 17.8729V17.8604H51.5V17.8729H53.5ZM53.5 17.8854V17.8729H51.5V17.8854H53.5ZM53.5 17.898V17.8854H51.5V17.898H53.5ZM53.5 17.9105V17.898H51.5V17.9105H53.5ZM53.5 17.923V17.9105H51.5V17.923H53.5ZM53.5 17.9356V17.923H51.5V17.9356H53.5ZM53.5 17.9481V17.9356H51.5V17.9481H53.5ZM53.5 17.9606V17.9481H51.5V17.9606H53.5ZM53.5 17.9731V17.9606H51.5V17.9731H53.5ZM53.5 17.9856V17.9731H51.5V17.9856H53.5ZM53.5 17.9981V17.9856H51.5V17.9981H53.5ZM53.5 18.0106V17.9981H51.5V18.0106H53.5ZM53.5 18.0231V18.0106H51.5V18.0231H53.5ZM53.5 18.0356V18.0231H51.5V18.0356H53.5ZM53.5 18.0481V18.0356H51.5V18.0481H53.5ZM53.5 18.0606V18.0481H51.5V18.0606H53.5ZM53.5 18.0731V18.0606H51.5V18.0731H53.5ZM53.5 18.0856V18.0731H51.5V18.0856H53.5ZM53.5 18.0981V18.0856H51.5V18.0981H53.5ZM53.5 18.1105V18.0981H51.5V18.1105H53.5ZM53.5 18.123V18.1105H51.5V18.123H53.5ZM53.5 18.1355V18.123H51.5V18.1355H53.5ZM53.5 18.148V18.1355H51.5V18.148H53.5ZM53.5 18.1604V18.148H51.5V18.1604H53.5ZM53.5 18.1729V18.1604H51.5V18.1729H53.5ZM53.5 18.1854V18.1729H51.5V18.1854H53.5ZM53.5 18.1978V18.1854H51.5V18.1978H53.5ZM53.5 18.2103V18.1978H51.5V18.2103H53.5ZM53.5 18.2227V18.2103H51.5V18.2227H53.5ZM53.5 18.2352V18.2227H51.5V18.2352H53.5ZM53.5 18.2476V18.2352H51.5V18.2476H53.5ZM53.5 18.2601V18.2476H51.5V18.2601H53.5ZM53.5 18.2725V18.2601H51.5V18.2725H53.5ZM53.5 18.2849V18.2725H51.5V18.2849H53.5ZM53.5 18.2974V18.2849H51.5V18.2974H53.5ZM53.5 18.3098V18.2974H51.5V18.3098H53.5ZM53.5 18.3222V18.3098H51.5V18.3222H53.5ZM53.5 18.3347V18.3222H51.5V18.3347H53.5ZM53.5 18.3471V18.3347H51.5V18.3471H53.5ZM53.5 18.3595V18.3471H51.5V18.3595H53.5ZM53.5 18.372V18.3595H51.5V18.372H53.5ZM53.5 18.3844V18.372H51.5V18.3844H53.5ZM53.5 18.3968V18.3844H51.5V18.3968H53.5ZM53.5 18.4092V18.3968H51.5V18.4092H53.5ZM53.5 18.4216V18.4092H51.5V18.4216H53.5ZM53.5 18.434V18.4216H51.5V18.434H53.5ZM53.5 18.4464V18.434H51.5V18.4464H53.5ZM53.5 18.4588V18.4464H51.5V18.4588H53.5ZM53.5 18.4713V18.4588H51.5V18.4713H53.5ZM53.5 18.4837V18.4713H51.5V18.4837H53.5ZM53.5 18.4961V18.4837H51.5V18.4961H53.5ZM53.5 18.5085V18.4961H51.5V18.5085H53.5ZM53.5 18.5209V18.5085H51.5V18.5209H53.5ZM53.5 18.5332V18.5209H51.5V18.5332H53.5ZM53.5 18.5456V18.5332H51.5V18.5456H53.5ZM53.5 18.558V18.5456H51.5V18.558H53.5ZM53.5 18.5704V18.558H51.5V18.5704H53.5ZM53.5 18.5828V18.5704H51.5V18.5828H53.5ZM53.5 18.5952V18.5828H51.5V18.5952H53.5ZM53.5 18.6076V18.5952H51.5V18.6076H53.5ZM53.5 18.62V18.6076H51.5V18.62H53.5ZM53.5 18.6323V18.62H51.5V18.6323H53.5ZM53.5 18.6447V18.6323H51.5V18.6447H53.5ZM53.5 18.6571V18.6447H51.5V18.6571H53.5ZM53.5 18.6695V18.6571H51.5V18.6695H53.5ZM53.5 18.6819V18.6695H51.5V18.6819H53.5ZM53.5 18.6942V18.6819H51.5V18.6942H53.5ZM53.5 18.7066V18.6942H51.5V18.7066H53.5ZM53.5 18.719V18.7066H51.5V18.719H53.5ZM53.5 18.7313V18.719H51.5V18.7313H53.5ZM53.5 18.7437V18.7313H51.5V18.7437H53.5ZM53.5 18.7561V18.7437H51.5V18.7561H53.5ZM53.5 18.7684V18.7561H51.5V18.7684H53.5ZM53.5 18.7808V18.7684H51.5V18.7808H53.5ZM53.5 18.7932V18.7808H51.5V18.7932H53.5ZM53.5 18.8055V18.7932H51.5V18.8055H53.5ZM53.5 18.8179V18.8055H51.5V18.8179H53.5ZM53.5 18.8302V18.8179H51.5V18.8302H53.5ZM53.5 18.8426V18.8302H51.5V18.8426H53.5ZM53.5 18.855V18.8426H51.5V18.855H53.5ZM53.5 18.8673V18.855H51.5V18.8673H53.5ZM53.5 18.8797V18.8673H51.5V18.8797H53.5ZM53.5 18.892V18.8797H51.5V18.892H53.5ZM53.5 18.9044V18.892H51.5V18.9044H53.5ZM53.5 18.9167V18.9044H51.5V18.9167H53.5ZM53.5 18.9291V18.9167H51.5V18.9291H53.5ZM53.5 18.9414V18.9291H51.5V18.9414H53.5ZM53.5 18.9538V18.9414H51.5V18.9538H53.5ZM53.5 18.9661V18.9538H51.5V18.9661H53.5ZM53.5 18.9785V18.9661H51.5V18.9785H53.5ZM53.5 18.9908V18.9785H51.5V18.9908H53.5ZM53.5 19.0032V18.9908H51.5V19.0032H53.5ZM53.5 19.0155V19.0032H51.5V19.0155H53.5ZM53.5 19.0279V19.0155H51.5V19.0279H53.5ZM53.5 19.0402V19.0279H51.5V19.0402H53.5ZM53.5 19.0525V19.0402H51.5V19.0525H53.5ZM53.5 19.0649V19.0525H51.5V19.0649H53.5ZM53.5 19.0772V19.0649H51.5V19.0772H53.5ZM53.5 19.0896V19.0772H51.5V19.0896H53.5ZM53.5 19.1019V19.0896H51.5V19.1019H53.5ZM53.5 19.1143V19.1019H51.5V19.1143H53.5ZM53.5 19.1266V19.1143H51.5V19.1266H53.5ZM53.5 19.1389V19.1266H51.5V19.1389H53.5ZM53.5 19.1513V19.1389H51.5V19.1513H53.5ZM53.5 19.1636V19.1513H51.5V19.1636H53.5ZM53.5 19.176V19.1636H51.5V19.176H53.5ZM53.5 19.1883V19.176H51.5V19.1883H53.5ZM53.5 19.2006V19.1883H51.5V19.2006H53.5ZM53.5 19.213V19.2006H51.5V19.213H53.5ZM53.5 19.2253V19.213H51.5V19.2253H53.5ZM53.5 19.2377V19.2253H51.5V19.2377H53.5ZM53.5 19.25V19.2377H51.5V19.25H53.5ZM53.5 19.2623V19.25H51.5V19.2623H53.5ZM53.5 19.2747V19.2623H51.5V19.2747H53.5ZM53.5 19.287V19.2747H51.5V19.287H53.5ZM53.5 19.2994V19.287H51.5V19.2994H53.5ZM53.5 19.3117V19.2994H51.5V19.3117H53.5ZM53.5 19.324V19.3117H51.5V19.324H53.5ZM53.5 19.3364V19.324H51.5V19.3364H53.5ZM53.5 19.3487V19.3364H51.5V19.3487H53.5ZM53.5 19.3611V19.3487H51.5V19.3611H53.5ZM53.5 19.3734V19.3611H51.5V19.3734H53.5ZM53.5 19.3857V19.3734H51.5V19.3857H53.5ZM53.5 19.3981V19.3857H51.5V19.3981H53.5ZM53.5 19.4104V19.3981H51.5V19.4104H53.5ZM53.5 19.4228V19.4104H51.5V19.4228H53.5ZM53.5 19.4351V19.4228H51.5V19.4351H53.5ZM53.5 19.4475V19.4351H51.5V19.4475H53.5ZM53.5 19.4598V19.4475H51.5V19.4598H53.5ZM53.5 19.4721V19.4598H51.5V19.4721H53.5ZM53.5 19.4845V19.4721H51.5V19.4845H53.5ZM53.5 19.4968V19.4845H51.5V19.4968H53.5ZM53.5 19.5092V19.4968H51.5V19.5092H53.5ZM53.5 19.5215V19.5092H51.5V19.5215H53.5ZM53.5 19.5339V19.5215H51.5V19.5339H53.5ZM53.5 19.5462V19.5339H51.5V19.5462H53.5ZM53.5 19.5586V19.5462H51.5V19.5586H53.5ZM53.5 19.5709V19.5586H51.5V19.5709H53.5ZM53.5 19.5833V19.5709H51.5V19.5833H53.5ZM53.5 19.5956V19.5833H51.5V19.5956H53.5ZM53.5 19.608V19.5956H51.5V19.608H53.5ZM53.5 19.6203V19.608H51.5V19.6203H53.5ZM53.5 19.6327V19.6203H51.5V19.6327H53.5ZM53.5 19.645V19.6327H51.5V19.645H53.5ZM53.5 19.6574V19.645H51.5V19.6574H53.5ZM53.5 19.6698V19.6574H51.5V19.6698H53.5ZM53.5 19.6821V19.6698H51.5V19.6821H53.5ZM53.5 19.6945V19.6821H51.5V19.6945H53.5ZM53.5 19.7068V19.6945H51.5V19.7068H53.5ZM53.5 19.7192V19.7068H51.5V19.7192H53.5ZM53.5 19.7316V19.7192H51.5V19.7316H53.5ZM53.5 19.7439V19.7316H51.5V19.7439H53.5ZM53.5 19.7563V19.7439H51.5V19.7563H53.5ZM53.5 19.7687V19.7563H51.5V19.7687H53.5ZM53.5 19.781V19.7687H51.5V19.781H53.5ZM53.5 19.7934V19.781H51.5V19.7934H53.5ZM53.5 19.8058V19.7934H51.5V19.8058H53.5ZM53.5 19.8182V19.8058H51.5V19.8182H53.5ZM53.5 19.8305V19.8182H51.5V19.8305H53.5ZM53.5 19.8429V19.8305H51.5V19.8429H53.5ZM53.5 19.8553V19.8429H51.5V19.8553H53.5ZM53.5 19.8677V19.8553H51.5V19.8677H53.5ZM53.5 19.88V19.8677H51.5V19.88H53.5ZM53.5 19.8924V19.88H51.5V19.8924H53.5ZM53.5 19.9048V19.8924H51.5V19.9048H53.5ZM53.5 19.9172V19.9048H51.5V19.9172H53.5ZM53.5 19.9296V19.9172H51.5V19.9296H53.5ZM53.5 19.942V19.9296H51.5V19.942H53.5ZM53.5 19.9544V19.942H51.5V19.9544H53.5ZM53.5 19.9668V19.9544H51.5V19.9668H53.5ZM53.5 19.9791V19.9668H51.5V19.9791H53.5ZM53.5 19.9915V19.9791H51.5V19.9915H53.5ZM53.5 20.0039V19.9915H51.5V20.0039H53.5ZM53.5 20.0163V20.0039H51.5V20.0163H53.5ZM53.5 20.0287V20.0163H51.5V20.0287H53.5ZM53.5 20.0412V20.0287H51.5V20.0412H53.5ZM53.5 20.0536V20.0412H51.5V20.0536H53.5ZM53.5 20.066V20.0536H51.5V20.066H53.5ZM53.5 20.0784V20.066H51.5V20.0784H53.5ZM53.5 20.0908V20.0784H51.5V20.0908H53.5ZM53.5 20.1032V20.0908H51.5V20.1032H53.5ZM53.5 20.1156V20.1032H51.5V20.1156H53.5ZM53.5 20.128V20.1156H51.5V20.128H53.5ZM53.5 20.1405V20.128H51.5V20.1405H53.5ZM53.5 20.1529V20.1405H51.5V20.1529H53.5ZM53.5 20.1653V20.1529H51.5V20.1653H53.5ZM53.5 20.1778V20.1653H51.5V20.1778H53.5ZM53.5 20.1902V20.1778H51.5V20.1902H53.5ZM53.5 20.2026V20.1902H51.5V20.2026H53.5ZM53.5 20.2151V20.2026H51.5V20.2151H53.5ZM53.5 20.2275V20.2151H51.5V20.2275H53.5ZM53.5 20.2399V20.2275H51.5V20.2399H53.5ZM53.5 20.2524V20.2399H51.5V20.2524H53.5ZM53.5 20.2648V20.2524H51.5V20.2648H53.5ZM53.5 20.2773V20.2648H51.5V20.2773H53.5ZM53.5 20.2897V20.2773H51.5V20.2897H53.5ZM53.5 20.3022V20.2897H51.5V20.3022H53.5ZM53.5 20.3146V20.3022H51.5V20.3146H53.5ZM53.5 20.3271V20.3146H51.5V20.3271H53.5ZM53.5 20.3396V20.3271H51.5V20.3396H53.5ZM53.5 20.352V20.3396H51.5V20.352H53.5ZM53.5 20.3645V20.352H51.5V20.3645H53.5ZM53.5 20.377V20.3645H51.5V20.377H53.5ZM53.5 20.3895V20.377H51.5V20.3895H53.5ZM53.5 20.4019V20.3895H51.5V20.4019H53.5ZM53.5 20.4144V20.4019H51.5V20.4144H53.5ZM53.5 20.4269V20.4144H51.5V20.4269H53.5ZM53.5 20.4394V20.4269H51.5V20.4394H53.5ZM53.5 20.4519V20.4394H51.5V20.4519H53.5ZM53.5 20.4644V20.4519H51.5V20.4644H53.5ZM53.5 20.4769V20.4644H51.5V20.4769H53.5ZM53.5 20.4894V20.4769H51.5V20.4894H53.5ZM53.5 20.5019V20.4894H51.5V20.5019H53.5ZM53.5 20.5144V20.5019H51.5V20.5144H53.5ZM53.5 20.5269V20.5144H51.5V20.5269H53.5ZM53.5 20.5394V20.5269H51.5V20.5394H53.5ZM53.5 20.5519V20.5394H51.5V20.5519H53.5ZM53.5 20.5644V20.5519H51.5V20.5644H53.5ZM53.5 20.577V20.5644H51.5V20.577H53.5ZM53.5 20.5895V20.577H51.5V20.5895H53.5ZM53.5 20.602V20.5895H51.5V20.602H53.5ZM53.5 20.6146V20.602H51.5V20.6146H53.5ZM53.5 20.6271V20.6146H51.5V20.6271H53.5ZM53.5 20.6396V20.6271H51.5V20.6396H53.5ZM53.5 20.6522V20.6396H51.5V20.6522H53.5ZM53.5 20.6647V20.6522H51.5V20.6647H53.5ZM53.5 20.6773V20.6647H51.5V20.6773H53.5ZM53.5 20.6898V20.6773H51.5V20.6898H53.5ZM53.5 20.7024V20.6898H51.5V20.7024H53.5ZM53.5 20.715V20.7024H51.5V20.715H53.5ZM53.5 20.7275V20.715H51.5V20.7275H53.5ZM53.5 20.7401V20.7275H51.5V20.7401H53.5ZM53.5 20.7527V20.7401H51.5V20.7527H53.5ZM53.5 20.7652V20.7527H51.5V20.7652H53.5ZM53.5 20.7778V20.7652H51.5V20.7778H53.5ZM53.5 20.7904V20.7778H51.5V20.7904H53.5ZM53.5 20.803V20.7904H51.5V20.803H53.5ZM53.5 20.8156V20.803H51.5V20.8156H53.5ZM53.5 20.8282V20.8156H51.5V20.8282H53.5ZM53.5 20.8408V20.8282H51.5V20.8408H53.5ZM53.5 20.8534V20.8408H51.5V20.8534H53.5ZM53.5 20.866V20.8534H51.5V20.866H53.5ZM53.5 20.8786V20.866H51.5V20.8786H53.5ZM53.5 20.8913V20.8786H51.5V20.8913H53.5ZM53.5 20.9039V20.8913H51.5V20.9039H53.5ZM53.5 20.9165V20.9039H51.5V20.9165H53.5ZM53.5 20.9291V20.9165H51.5V20.9291H53.5ZM53.5 20.9418V20.9291H51.5V20.9418H53.5ZM53.5 20.9544V20.9418H51.5V20.9544H53.5ZM53.5 20.9671V20.9544H51.5V20.9671H53.5ZM53.5 20.9797V20.9671H51.5V20.9797H53.5ZM53.5 20.9924V20.9797H51.5V20.9924H53.5ZM53.5 21.005V20.9924H51.5V21.005H53.5ZM53.5 21.0177V21.005H51.5V21.0177H53.5ZM53.5 21.0304V21.0177H51.5V21.0304H53.5ZM53.5 21.043V21.0304H51.5V21.043H53.5ZM53.5 21.0557V21.043H51.5V21.0557H53.5ZM53.5 21.0684V21.0557H51.5V21.0684H53.5ZM53.5 21.0811V21.0684H51.5V21.0811H53.5ZM53.5 21.0938V21.0811H51.5V21.0938H53.5ZM53.5 21.1065V21.0938H51.5V21.1065H53.5ZM53.5 21.1192V21.1065H51.5V21.1192H53.5ZM53.5 21.1319V21.1192H51.5V21.1319H53.5ZM53.5 21.1446V21.1319H51.5V21.1446H53.5ZM53.5 21.1573V21.1446H51.5V21.1573H53.5ZM53.5 21.17V21.1573H51.5V21.17H53.5ZM53.5 21.1828V21.17H51.5V21.1828H53.5ZM53.5 21.1955V21.1828H51.5V21.1955H53.5ZM53.5 21.2082V21.1955H51.5V21.2082H53.5ZM53.5 21.221V21.2082H51.5V21.221H53.5ZM53.5 21.2337V21.221H51.5V21.2337H53.5ZM53.5 21.2465V21.2337H51.5V21.2465H53.5ZM53.5 21.2592V21.2465H51.5V21.2592H53.5ZM53.5 21.272V21.2592H51.5V21.272H53.5ZM53.5 21.2848V21.272H51.5V21.2848H53.5ZM53.5 21.2975V21.2848H51.5V21.2975H53.5ZM53.5 21.3103V21.2975H51.5V21.3103H53.5ZM53.5 21.3231V21.3103H51.5V21.3231H53.5ZM53.5 21.3359V21.3231H51.5V21.3359H53.5ZM53.5 21.3487V21.3359H51.5V21.3487H53.5ZM53.5 21.3615V21.3487H51.5V21.3615H53.5ZM53.5 21.3743V21.3615H51.5V21.3743H53.5ZM53.5 21.3871V21.3743H51.5V21.3871H53.5ZM53.5 21.3999V21.3871H51.5V21.3999H53.5ZM53.5 21.4127V21.3999H51.5V21.4127H53.5ZM53.5 21.4256V21.4127H51.5V21.4256H53.5ZM53.5 21.4384V21.4256H51.5V21.4384H53.5ZM53.5 21.4512V21.4384H51.5V21.4512H53.5ZM53.5 21.4641V21.4512H51.5V21.4641H53.5ZM53.5 21.4769V21.4641H51.5V21.4769H53.5ZM53.5 21.4898V21.4769H51.5V21.4898H53.5ZM53.5 21.5026V21.4898H51.5V21.5026H53.5ZM53.5 21.5155V21.5026H51.5V21.5155H53.5ZM53.5 21.5284V21.5155H51.5V21.5284H53.5ZM53.5 21.5413V21.5284H51.5V21.5413H53.5ZM53.5 21.5541V21.5413H51.5V21.5541H53.5ZM53.5 21.567V21.5541H51.5V21.567H53.5ZM53.5 21.5799V21.567H51.5V21.5799H53.5ZM53.5 21.5928V21.5799H51.5V21.5928H53.5ZM53.5 21.6057V21.5928H51.5V21.6057H53.5ZM53.5 21.6187V21.6057H51.5V21.6187H53.5ZM53.5 21.6316V21.6187H51.5V21.6316H53.5ZM53.5 21.6445V21.6316H51.5V21.6445H53.5ZM53.5 21.6574V21.6445H51.5V21.6574H53.5ZM53.5 21.6704V21.6574H51.5V21.6704H53.5ZM53.5 21.6833V21.6704H51.5V21.6833H53.5ZM53.5 21.6963V21.6833H51.5V21.6963H53.5ZM53.5 21.7092V21.6963H51.5V21.7092H53.5ZM53.5 21.7222V21.7092H51.5V21.7222H53.5ZM53.5 21.7352V21.7222H51.5V21.7352H53.5ZM53.5 21.7482V21.7352H51.5V21.7482H53.5ZM53.5 21.7611V21.7482H51.5V21.7611H53.5ZM53.5 21.7741V21.7611H51.5V21.7741H53.5ZM53.5 21.7871V21.7741H51.5V21.7871H53.5ZM53.5 21.8001V21.7871H51.5V21.8001H53.5ZM53.5 21.8131V21.8001H51.5V21.8131H53.5ZM53.5 21.8262V21.8131H51.5V21.8262H53.5ZM53.5 21.8392V21.8262H51.5V21.8392H53.5ZM53.5 21.8522V21.8392H51.5V21.8522H53.5ZM53.5 21.8652V21.8522H51.5V21.8652H53.5ZM53.5 21.8783V21.8652H51.5V21.8783H53.5ZM53.5 21.8913V21.8783H51.5V21.8913H53.5ZM53.5 21.9044V21.8913H51.5V21.9044H53.5ZM53.5 21.9175V21.9044H51.5V21.9175H53.5ZM53.5 21.9305V21.9175H51.5V21.9305H53.5ZM53.5 21.9436V21.9305H51.5V21.9436H53.5ZM53.5 21.9567V21.9436H51.5V21.9567H53.5ZM53.5 21.9698V21.9567H51.5V21.9698H53.5ZM53.5 21.9829V21.9698H51.5V21.9829H53.5ZM53.5 21.996V21.9829H51.5V21.996H53.5ZM53.5 22.0091V21.996H51.5V22.0091H53.5ZM53.5 22.0222V22.0091H51.5V22.0222H53.5ZM53.5 22.0354V22.0222H51.5V22.0354H53.5ZM53.5 22.0485V22.0354H51.5V22.0485H53.5ZM53.5 22.0616V22.0485H51.5V22.0616H53.5ZM53.5 22.0748V22.0616H51.5V22.0748H53.5ZM53.5 22.0879V22.0748H51.5V22.0879H53.5ZM53.5 22.1011V22.0879H51.5V22.1011H53.5ZM53.5 22.1143V22.1011H51.5V22.1143H53.5ZM53.5 22.1275V22.1143H51.5V22.1275H53.5ZM53.5 22.1406V22.1275H51.5V22.1406H53.5ZM53.5 22.1538V22.1406H51.5V22.1538H53.5ZM53.5 22.167V22.1538H51.5V22.167H53.5ZM53.5 22.1802V22.167H51.5V22.1802H53.5ZM53.5 22.1935V22.1802H51.5V22.1935H53.5ZM53.5 22.2067V22.1935H51.5V22.2067H53.5ZM53.5 22.2199V22.2067H51.5V22.2199H53.5ZM53.5 22.2331V22.2199H51.5V22.2331H53.5ZM53.5 22.2464V22.2331H51.5V22.2464H53.5ZM53.5 22.2596V22.2464H51.5V22.2596H53.5ZM53.5 22.2729V22.2596H51.5V22.2729H53.5ZM53.5 22.2862V22.2729H51.5V22.2862H53.5ZM53.5 22.2995V22.2862H51.5V22.2995H53.5ZM53.5 22.3127V22.2995H51.5V22.3127H53.5ZM53.5 22.326V22.3127H51.5V22.326H53.5ZM53.5 22.3393V22.326H51.5V22.3393H53.5ZM53.5 22.3526V22.3393H51.5V22.3526H53.5ZM53.5 22.366V22.3526H51.5V22.366H53.5ZM53.5 22.3793V22.366H51.5V22.3793H53.5ZM53.5 22.3926V22.3793H51.5V22.3926H53.5ZM53.5 22.406V22.3926H51.5V22.406H53.5ZM53.5 22.4193V22.406H51.5V22.4193H53.5ZM53.5 22.4327V22.4193H51.5V22.4327H53.5ZM53.5 22.446V22.4327H51.5V22.446H53.5ZM53.5 22.4594V22.446H51.5V22.4594H53.5ZM53.5 22.4728V22.4594H51.5V22.4728H53.5ZM53.5 22.4862V22.4728H51.5V22.4862H53.5ZM53.5 22.4996V22.4862H51.5V22.4996H53.5ZM49.9943 26C51.9262 26 53.5 24.4336 53.5 22.4996H51.5C51.5 23.3247 50.826 24 49.9943 24V26ZM49.8907 26H49.9943V24H49.8907V26ZM49.7873 26H49.8907V24H49.7873V26ZM49.684 26H49.7873V24H49.684V26ZM49.5809 26H49.684V24H49.5809V26ZM49.478 26H49.5809V24H49.478V26ZM49.3752 26H49.478V24H49.3752V26ZM49.2725 26H49.3752V24H49.2725V26ZM49.17 26H49.2725V24H49.17V26ZM49.0676 26H49.17V24H49.0676V26ZM48.9654 26H49.0676V24H48.9654V26ZM48.8633 26H48.9654V24H48.8633V26ZM48.7614 26H48.8633V24H48.7614V26ZM48.6596 26H48.7614V24H48.6596V26ZM48.5579 26H48.6596V24H48.5579V26ZM48.4564 26H48.5579V24H48.4564V26ZM48.355 26H48.4564V24H48.355V26ZM48.2538 26H48.355V24H48.2538V26ZM48.1527 26H48.2538V24H48.1527V26ZM48.0518 26H48.1527V24H48.0518V26ZM47.951 26H48.0518V24H47.951V26ZM47.8503 26H47.951V24H47.8503V26ZM47.7498 26H47.8503V24H47.7498V26ZM47.6494 26H47.7498V24H47.6494V26ZM47.5491 26H47.6494V24H47.5491V26ZM47.449 26H47.5491V24H47.449V26ZM47.349 26H47.449V24H47.349V26ZM47.2491 26H47.349V24H47.2491V26ZM47.1494 26H47.2491V24H47.1494V26ZM47.0499 26H47.1494V24H47.0499V26ZM46.9504 26H47.0499V24H46.9504V26ZM46.8511 26H46.9504V24H46.8511V26ZM46.7519 26H46.8511V24H46.7519V26ZM46.6528 26H46.7519V24H46.6528V26ZM46.5539 26H46.6528V24H46.5539V26ZM46.4551 26H46.5539V24H46.4551V26ZM46.3565 26H46.4551V24H46.3565V26ZM46.2579 26H46.3565V24H46.2579V26ZM46.1595 26H46.2579V24H46.1595V26ZM46.0613 26H46.1595V24H46.0613V26ZM45.9631 26H46.0613V24H45.9631V26ZM45.8651 26H45.9631V24H45.8651V26ZM45.7672 26H45.8651V24H45.7672V26ZM45.6694 26H45.7672V24H45.6694V26ZM45.5718 26H45.6694V24H45.5718V26ZM45.4743 26H45.5718V24H45.4743V26ZM45.3769 26H45.4743V24H45.3769V26ZM45.2796 26H45.3769V24H45.2796V26ZM45.1824 26H45.2796V24H45.1824V26ZM45.0854 26H45.1824V24H45.0854V26ZM44.9885 26H45.0854V24H44.9885V26ZM44.8917 26H44.9885V24H44.8917V26ZM44.7951 26H44.8917V24H44.7951V26ZM44.6985 26H44.7951V24H44.6985V26ZM44.6021 26H44.6985V24H44.6021V26ZM44.5058 26H44.6021V24H44.5058V26ZM44.4096 26H44.5058V24H44.4096V26ZM44.3135 26H44.4096V24H44.3135V26ZM44.2176 26H44.3135V24H44.2176V26ZM44.1217 26H44.2176V24H44.1217V26ZM44.026 26H44.1217V24H44.026V26ZM43.9776 26H44.026V24H43.9776V26ZM45 25.5C45 25.3014 44.9911 25.1047 44.9735 24.9103L42.9816 25.0897C42.9938 25.2246 43 25.3615 43 25.5H45ZM44.9735 26.0897C44.9911 25.8953 45 25.6986 45 25.5H43C43 25.6385 42.9938 25.7754 42.9816 25.9103L44.9735 26.0897ZM44.026 25H43.9776V27H44.026V25ZM44.1217 25H44.026V27H44.1217V25ZM44.2176 25H44.1217V27H44.2176V25ZM44.3135 25H44.2176V27H44.3135V25ZM44.4096 25H44.3135V27H44.4096V25ZM44.5058 25H44.4096V27H44.5058V25ZM44.6021 25H44.5058V27H44.6021V25ZM44.6985 25H44.6021V27H44.6985V25ZM44.7951 25H44.6985V27H44.7951V25ZM44.8917 25H44.7951V27H44.8917V25ZM44.9885 25H44.8917V27H44.9885V25ZM45.0854 25H44.9885V27H45.0854V25ZM45.1824 25H45.0854V27H45.1824V25ZM45.2796 25H45.1824V27H45.2796V25ZM45.3769 25H45.2796V27H45.3769V25ZM45.4743 25H45.3769V27H45.4743V25ZM45.5718 25H45.4743V27H45.5718V25ZM45.6694 25H45.5718V27H45.6694V25ZM45.7672 25H45.6694V27H45.7672V25ZM45.8651 25H45.7672V27H45.8651V25ZM45.9631 25H45.8651V27H45.9631V25ZM46.0613 25H45.9631V27H46.0613V25ZM46.1595 25H46.0613V27H46.1595V25ZM46.2579 25H46.1595V27H46.2579V25ZM46.3565 25H46.2579V27H46.3565V25ZM46.4551 25H46.3565V27H46.4551V25ZM46.5539 25H46.4551V27H46.5539V25ZM46.6528 25H46.5539V27H46.6528V25ZM46.7519 25H46.6528V27H46.7519V25ZM46.8511 25H46.7519V27H46.8511V25ZM46.9504 25H46.8511V27H46.9504V25ZM47.0499 25H46.9504V27H47.0499V25ZM47.1494 25H47.0499V27H47.1494V25ZM47.2491 25H47.1494V27H47.2491V25ZM47.349 25H47.2491V27H47.349V25ZM47.449 25H47.349V27H47.449V25ZM47.5491 25H47.449V27H47.5491V25ZM47.6494 25H47.5491V27H47.6494V25ZM47.7498 25H47.6494V27H47.7498V25ZM47.8503 25H47.7498V27H47.8503V25ZM47.951 25H47.8503V27H47.951V25ZM48.0518 25H47.951V27H48.0518V25ZM48.1527 25H48.0518V27H48.1527V25ZM48.2538 25H48.1527V27H48.2538V25ZM48.355 25H48.2538V27H48.355V25ZM48.4564 25H48.355V27H48.4564V25ZM48.5579 25H48.4564V27H48.5579V25ZM48.6596 25H48.5579V27H48.6596V25ZM48.7614 25H48.6596V27H48.7614V25ZM48.8633 25H48.7614V27H48.8633V25ZM48.9654 25H48.8633V27H48.9654V25ZM49.0676 25H48.9654V27H49.0676V25ZM49.17 25H49.0676V27H49.17V25ZM49.2725 25H49.17V27H49.2725V25ZM49.3752 25H49.2725V27H49.3752V25ZM49.478 25H49.3752V27H49.478V25ZM49.5809 25H49.478V27H49.5809V25ZM49.684 25H49.5809V27H49.684V25ZM49.7873 25H49.684V27H49.7873V25ZM49.8907 25H49.7873V27H49.8907V25ZM49.9943 25H49.8907V27H49.9943V25ZM52.5 22.4996C52.5 23.879 51.3762 25 49.9943 25V27C52.476 27 54.5 24.9884 54.5 22.4996H52.5ZM52.5 22.4862V22.4996H54.5V22.4862H52.5ZM52.5 22.4728V22.4862H54.5V22.4728H52.5ZM52.5 22.4594V22.4728H54.5V22.4594H52.5ZM52.5 22.446V22.4594H54.5V22.446H52.5ZM52.5 22.4327V22.446H54.5V22.4327H52.5ZM52.5 22.4193V22.4327H54.5V22.4193H52.5ZM52.5 22.406V22.4193H54.5V22.406H52.5ZM52.5 22.3926V22.406H54.5V22.3926H52.5ZM52.5 22.3793V22.3926H54.5V22.3793H52.5ZM52.5 22.366V22.3793H54.5V22.366H52.5ZM52.5 22.3526V22.366H54.5V22.3526H52.5ZM52.5 22.3393V22.3526H54.5V22.3393H52.5ZM52.5 22.326V22.3393H54.5V22.326H52.5ZM52.5 22.3127V22.326H54.5V22.3127H52.5ZM52.5 22.2995V22.3127H54.5V22.2995H52.5ZM52.5 22.2862V22.2995H54.5V22.2862H52.5ZM52.5 22.2729V22.2862H54.5V22.2729H52.5ZM52.5 22.2596V22.2729H54.5V22.2596H52.5ZM52.5 22.2464V22.2596H54.5V22.2464H52.5ZM52.5 22.2331V22.2464H54.5V22.2331H52.5ZM52.5 22.2199V22.2331H54.5V22.2199H52.5ZM52.5 22.2067V22.2199H54.5V22.2067H52.5ZM52.5 22.1935V22.2067H54.5V22.1935H52.5ZM52.5 22.1802V22.1935H54.5V22.1802H52.5ZM52.5 22.167V22.1802H54.5V22.167H52.5ZM52.5 22.1538V22.167H54.5V22.1538H52.5ZM52.5 22.1406V22.1538H54.5V22.1406H52.5ZM52.5 22.1275V22.1406H54.5V22.1275H52.5ZM52.5 22.1143V22.1275H54.5V22.1143H52.5ZM52.5 22.1011V22.1143H54.5V22.1011H52.5ZM52.5 22.0879V22.1011H54.5V22.0879H52.5ZM52.5 22.0748V22.0879H54.5V22.0748H52.5ZM52.5 22.0616V22.0748H54.5V22.0616H52.5ZM52.5 22.0485V22.0616H54.5V22.0485H52.5ZM52.5 22.0354V22.0485H54.5V22.0354H52.5ZM52.5 22.0222V22.0354H54.5V22.0222H52.5ZM52.5 22.0091V22.0222H54.5V22.0091H52.5ZM52.5 21.996V22.0091H54.5V21.996H52.5ZM52.5 21.9829V21.996H54.5V21.9829H52.5ZM52.5 21.9698V21.9829H54.5V21.9698H52.5ZM52.5 21.9567V21.9698H54.5V21.9567H52.5ZM52.5 21.9436V21.9567H54.5V21.9436H52.5ZM52.5 21.9305V21.9436H54.5V21.9305H52.5ZM52.5 21.9175V21.9305H54.5V21.9175H52.5ZM52.5 21.9044V21.9175H54.5V21.9044H52.5ZM52.5 21.8913V21.9044H54.5V21.8913H52.5ZM52.5 21.8783V21.8913H54.5V21.8783H52.5ZM52.5 21.8652V21.8783H54.5V21.8652H52.5ZM52.5 21.8522V21.8652H54.5V21.8522H52.5ZM52.5 21.8392V21.8522H54.5V21.8392H52.5ZM52.5 21.8262V21.8392H54.5V21.8262H52.5ZM52.5 21.8131V21.8262H54.5V21.8131H52.5ZM52.5 21.8001V21.8131H54.5V21.8001H52.5ZM52.5 21.7871V21.8001H54.5V21.7871H52.5ZM52.5 21.7741V21.7871H54.5V21.7741H52.5ZM52.5 21.7611V21.7741H54.5V21.7611H52.5ZM52.5 21.7482V21.7611H54.5V21.7482H52.5ZM52.5 21.7352V21.7482H54.5V21.7352H52.5ZM52.5 21.7222V21.7352H54.5V21.7222H52.5ZM52.5 21.7092V21.7222H54.5V21.7092H52.5ZM52.5 21.6963V21.7092H54.5V21.6963H52.5ZM52.5 21.6833V21.6963H54.5V21.6833H52.5ZM52.5 21.6704V21.6833H54.5V21.6704H52.5ZM52.5 21.6574V21.6704H54.5V21.6574H52.5ZM52.5 21.6445V21.6574H54.5V21.6445H52.5ZM52.5 21.6316V21.6445H54.5V21.6316H52.5ZM52.5 21.6187V21.6316H54.5V21.6187H52.5ZM52.5 21.6057V21.6187H54.5V21.6057H52.5ZM52.5 21.5928V21.6057H54.5V21.5928H52.5ZM52.5 21.5799V21.5928H54.5V21.5799H52.5ZM52.5 21.567V21.5799H54.5V21.567H52.5ZM52.5 21.5541V21.567H54.5V21.5541H52.5ZM52.5 21.5413V21.5541H54.5V21.5413H52.5ZM52.5 21.5284V21.5413H54.5V21.5284H52.5ZM52.5 21.5155V21.5284H54.5V21.5155H52.5ZM52.5 21.5026V21.5155H54.5V21.5026H52.5ZM52.5 21.4898V21.5026H54.5V21.4898H52.5ZM52.5 21.4769V21.4898H54.5V21.4769H52.5ZM52.5 21.4641V21.4769H54.5V21.4641H52.5ZM52.5 21.4512V21.4641H54.5V21.4512H52.5ZM52.5 21.4384V21.4512H54.5V21.4384H52.5ZM52.5 21.4256V21.4384H54.5V21.4256H52.5ZM52.5 21.4127V21.4256H54.5V21.4127H52.5ZM52.5 21.3999V21.4127H54.5V21.3999H52.5ZM52.5 21.3871V21.3999H54.5V21.3871H52.5ZM52.5 21.3743V21.3871H54.5V21.3743H52.5ZM52.5 21.3615V21.3743H54.5V21.3615H52.5ZM52.5 21.3487V21.3615H54.5V21.3487H52.5ZM52.5 21.3359V21.3487H54.5V21.3359H52.5ZM52.5 21.3231V21.3359H54.5V21.3231H52.5ZM52.5 21.3103V21.3231H54.5V21.3103H52.5ZM52.5 21.2975V21.3103H54.5V21.2975H52.5ZM52.5 21.2848V21.2975H54.5V21.2848H52.5ZM52.5 21.272V21.2848H54.5V21.272H52.5ZM52.5 21.2592V21.272H54.5V21.2592H52.5ZM52.5 21.2465V21.2592H54.5V21.2465H52.5ZM52.5 21.2337V21.2465H54.5V21.2337H52.5ZM52.5 21.221V21.2337H54.5V21.221H52.5ZM52.5 21.2082V21.221H54.5V21.2082H52.5ZM52.5 21.1955V21.2082H54.5V21.1955H52.5ZM52.5 21.1828V21.1955H54.5V21.1828H52.5ZM52.5 21.17V21.1828H54.5V21.17H52.5ZM52.5 21.1573V21.17H54.5V21.1573H52.5ZM52.5 21.1446V21.1573H54.5V21.1446H52.5ZM52.5 21.1319V21.1446H54.5V21.1319H52.5ZM52.5 21.1192V21.1319H54.5V21.1192H52.5ZM52.5 21.1065V21.1192H54.5V21.1065H52.5ZM52.5 21.0938V21.1065H54.5V21.0938H52.5ZM52.5 21.0811V21.0938H54.5V21.0811H52.5ZM52.5 21.0684V21.0811H54.5V21.0684H52.5ZM52.5 21.0557V21.0684H54.5V21.0557H52.5ZM52.5 21.043V21.0557H54.5V21.043H52.5ZM52.5 21.0304V21.043H54.5V21.0304H52.5ZM52.5 21.0177V21.0304H54.5V21.0177H52.5ZM52.5 21.005V21.0177H54.5V21.005H52.5ZM52.5 20.9924V21.005H54.5V20.9924H52.5ZM52.5 20.9797V20.9924H54.5V20.9797H52.5ZM52.5 20.9671V20.9797H54.5V20.9671H52.5ZM52.5 20.9544V20.9671H54.5V20.9544H52.5ZM52.5 20.9418V20.9544H54.5V20.9418H52.5ZM52.5 20.9291V20.9418H54.5V20.9291H52.5ZM52.5 20.9165V20.9291H54.5V20.9165H52.5ZM52.5 20.9039V20.9165H54.5V20.9039H52.5ZM52.5 20.8913V20.9039H54.5V20.8913H52.5ZM52.5 20.8786V20.8913H54.5V20.8786H52.5ZM52.5 20.866V20.8786H54.5V20.866H52.5ZM52.5 20.8534V20.866H54.5V20.8534H52.5ZM52.5 20.8408V20.8534H54.5V20.8408H52.5ZM52.5 20.8282V20.8408H54.5V20.8282H52.5ZM52.5 20.8156V20.8282H54.5V20.8156H52.5ZM52.5 20.803V20.8156H54.5V20.803H52.5ZM52.5 20.7904V20.803H54.5V20.7904H52.5ZM52.5 20.7778V20.7904H54.5V20.7778H52.5ZM52.5 20.7652V20.7778H54.5V20.7652H52.5ZM52.5 20.7527V20.7652H54.5V20.7527H52.5ZM52.5 20.7401V20.7527H54.5V20.7401H52.5ZM52.5 20.7275V20.7401H54.5V20.7275H52.5ZM52.5 20.715V20.7275H54.5V20.715H52.5ZM52.5 20.7024V20.715H54.5V20.7024H52.5ZM52.5 20.6898V20.7024H54.5V20.6898H52.5ZM52.5 20.6773V20.6898H54.5V20.6773H52.5ZM52.5 20.6647V20.6773H54.5V20.6647H52.5ZM52.5 20.6522V20.6647H54.5V20.6522H52.5ZM52.5 20.6396V20.6522H54.5V20.6396H52.5ZM52.5 20.6271V20.6396H54.5V20.6271H52.5ZM52.5 20.6146V20.6271H54.5V20.6146H52.5ZM52.5 20.602V20.6146H54.5V20.602H52.5ZM52.5 20.5895V20.602H54.5V20.5895H52.5ZM52.5 20.577V20.5895H54.5V20.577H52.5ZM52.5 20.5644V20.577H54.5V20.5644H52.5ZM52.5 20.5519V20.5644H54.5V20.5519H52.5ZM52.5 20.5394V20.5519H54.5V20.5394H52.5ZM52.5 20.5269V20.5394H54.5V20.5269H52.5ZM52.5 20.5144V20.5269H54.5V20.5144H52.5ZM52.5 20.5019V20.5144H54.5V20.5019H52.5ZM52.5 20.4894V20.5019H54.5V20.4894H52.5ZM52.5 20.4769V20.4894H54.5V20.4769H52.5ZM52.5 20.4644V20.4769H54.5V20.4644H52.5ZM52.5 20.4519V20.4644H54.5V20.4519H52.5ZM52.5 20.4394V20.4519H54.5V20.4394H52.5ZM52.5 20.4269V20.4394H54.5V20.4269H52.5ZM52.5 20.4144V20.4269H54.5V20.4144H52.5ZM52.5 20.4019V20.4144H54.5V20.4019H52.5ZM52.5 20.3895V20.4019H54.5V20.3895H52.5ZM52.5 20.377V20.3895H54.5V20.377H52.5ZM52.5 20.3645V20.377H54.5V20.3645H52.5ZM52.5 20.352V20.3645H54.5V20.352H52.5ZM52.5 20.3396V20.352H54.5V20.3396H52.5ZM52.5 20.3271V20.3396H54.5V20.3271H52.5ZM52.5 20.3146V20.3271H54.5V20.3146H52.5ZM52.5 20.3022V20.3146H54.5V20.3022H52.5ZM52.5 20.2897V20.3022H54.5V20.2897H52.5ZM52.5 20.2773V20.2897H54.5V20.2773H52.5ZM52.5 20.2648V20.2773H54.5V20.2648H52.5ZM52.5 20.2524V20.2648H54.5V20.2524H52.5ZM52.5 20.2399V20.2524H54.5V20.2399H52.5ZM52.5 20.2275V20.2399H54.5V20.2275H52.5ZM52.5 20.2151V20.2275H54.5V20.2151H52.5ZM52.5 20.2026V20.2151H54.5V20.2026H52.5ZM52.5 20.1902V20.2026H54.5V20.1902H52.5ZM52.5 20.1778V20.1902H54.5V20.1778H52.5ZM52.5 20.1653V20.1778H54.5V20.1653H52.5ZM52.5 20.1529V20.1653H54.5V20.1529H52.5ZM52.5 20.1405V20.1529H54.5V20.1405H52.5ZM52.5 20.128V20.1405H54.5V20.128H52.5ZM52.5 20.1156V20.128H54.5V20.1156H52.5ZM52.5 20.1032V20.1156H54.5V20.1032H52.5ZM52.5 20.0908V20.1032H54.5V20.0908H52.5ZM52.5 20.0784V20.0908H54.5V20.0784H52.5ZM52.5 20.066V20.0784H54.5V20.066H52.5ZM52.5 20.0536V20.066H54.5V20.0536H52.5ZM52.5 20.0412V20.0536H54.5V20.0412H52.5ZM52.5 20.0287V20.0412H54.5V20.0287H52.5ZM52.5 20.0163V20.0287H54.5V20.0163H52.5ZM52.5 20.0039V20.0163H54.5V20.0039H52.5ZM52.5 19.9915V20.0039H54.5V19.9915H52.5ZM52.5 19.9791V19.9915H54.5V19.9791H52.5ZM52.5 19.9668V19.9791H54.5V19.9668H52.5ZM52.5 19.9544V19.9668H54.5V19.9544H52.5ZM52.5 19.942V19.9544H54.5V19.942H52.5ZM52.5 19.9296V19.942H54.5V19.9296H52.5ZM52.5 19.9172V19.9296H54.5V19.9172H52.5ZM52.5 19.9048V19.9172H54.5V19.9048H52.5ZM52.5 19.8924V19.9048H54.5V19.8924H52.5ZM52.5 19.88V19.8924H54.5V19.88H52.5ZM52.5 19.8677V19.88H54.5V19.8677H52.5ZM52.5 19.8553V19.8677H54.5V19.8553H52.5ZM52.5 19.8429V19.8553H54.5V19.8429H52.5ZM52.5 19.8305V19.8429H54.5V19.8305H52.5ZM52.5 19.8182V19.8305H54.5V19.8182H52.5ZM52.5 19.8058V19.8182H54.5V19.8058H52.5ZM52.5 19.7934V19.8058H54.5V19.7934H52.5ZM52.5 19.781V19.7934H54.5V19.781H52.5ZM52.5 19.7687V19.781H54.5V19.7687H52.5ZM52.5 19.7563V19.7687H54.5V19.7563H52.5ZM52.5 19.7439V19.7563H54.5V19.7439H52.5ZM52.5 19.7316V19.7439H54.5V19.7316H52.5ZM52.5 19.7192V19.7316H54.5V19.7192H52.5ZM52.5 19.7068V19.7192H54.5V19.7068H52.5ZM52.5 19.6945V19.7068H54.5V19.6945H52.5ZM52.5 19.6821V19.6945H54.5V19.6821H52.5ZM52.5 19.6698V19.6821H54.5V19.6698H52.5ZM52.5 19.6574V19.6698H54.5V19.6574H52.5ZM52.5 19.645V19.6574H54.5V19.645H52.5ZM52.5 19.6327V19.645H54.5V19.6327H52.5ZM52.5 19.6203V19.6327H54.5V19.6203H52.5ZM52.5 19.608V19.6203H54.5V19.608H52.5ZM52.5 19.5956V19.608H54.5V19.5956H52.5ZM52.5 19.5833V19.5956H54.5V19.5833H52.5ZM52.5 19.5709V19.5833H54.5V19.5709H52.5ZM52.5 19.5586V19.5709H54.5V19.5586H52.5ZM52.5 19.5462V19.5586H54.5V19.5462H52.5ZM52.5 19.5339V19.5462H54.5V19.5339H52.5ZM52.5 19.5215V19.5339H54.5V19.5215H52.5ZM52.5 19.5092V19.5215H54.5V19.5092H52.5ZM52.5 19.4968V19.5092H54.5V19.4968H52.5ZM52.5 19.4845V19.4968H54.5V19.4845H52.5ZM52.5 19.4721V19.4845H54.5V19.4721H52.5ZM52.5 19.4598V19.4721H54.5V19.4598H52.5ZM52.5 19.4475V19.4598H54.5V19.4475H52.5ZM52.5 19.4351V19.4475H54.5V19.4351H52.5ZM52.5 19.4228V19.4351H54.5V19.4228H52.5ZM52.5 19.4104V19.4228H54.5V19.4104H52.5ZM52.5 19.3981V19.4104H54.5V19.3981H52.5ZM52.5 19.3857V19.3981H54.5V19.3857H52.5ZM52.5 19.3734V19.3857H54.5V19.3734H52.5ZM52.5 19.3611V19.3734H54.5V19.3611H52.5ZM52.5 19.3487V19.3611H54.5V19.3487H52.5ZM52.5 19.3364V19.3487H54.5V19.3364H52.5ZM52.5 19.324V19.3364H54.5V19.324H52.5ZM52.5 19.3117V19.324H54.5V19.3117H52.5ZM52.5 19.2994V19.3117H54.5V19.2994H52.5ZM52.5 19.287V19.2994H54.5V19.287H52.5ZM52.5 19.2747V19.287H54.5V19.2747H52.5ZM52.5 19.2623V19.2747H54.5V19.2623H52.5ZM52.5 19.25V19.2623H54.5V19.25H52.5ZM52.5 19.2377V19.25H54.5V19.2377H52.5ZM52.5 19.2253V19.2377H54.5V19.2253H52.5ZM52.5 19.213V19.2253H54.5V19.213H52.5ZM52.5 19.2006V19.213H54.5V19.2006H52.5ZM52.5 19.1883V19.2006H54.5V19.1883H52.5ZM52.5 19.176V19.1883H54.5V19.176H52.5ZM52.5 19.1636V19.176H54.5V19.1636H52.5ZM52.5 19.1513V19.1636H54.5V19.1513H52.5ZM52.5 19.1389V19.1513H54.5V19.1389H52.5ZM52.5 19.1266V19.1389H54.5V19.1266H52.5ZM52.5 19.1143V19.1266H54.5V19.1143H52.5ZM52.5 19.1019V19.1143H54.5V19.1019H52.5ZM52.5 19.0896V19.1019H54.5V19.0896H52.5ZM52.5 19.0772V19.0896H54.5V19.0772H52.5ZM52.5 19.0649V19.0772H54.5V19.0649H52.5ZM52.5 19.0525V19.0649H54.5V19.0525H52.5ZM52.5 19.0402V19.0525H54.5V19.0402H52.5ZM52.5 19.0279V19.0402H54.5V19.0279H52.5ZM52.5 19.0155V19.0279H54.5V19.0155H52.5ZM52.5 19.0032V19.0155H54.5V19.0032H52.5ZM52.5 18.9908V19.0032H54.5V18.9908H52.5ZM52.5 18.9785V18.9908H54.5V18.9785H52.5ZM52.5 18.9661V18.9785H54.5V18.9661H52.5ZM52.5 18.9538V18.9661H54.5V18.9538H52.5ZM52.5 18.9414V18.9538H54.5V18.9414H52.5ZM52.5 18.9291V18.9414H54.5V18.9291H52.5ZM52.5 18.9167V18.9291H54.5V18.9167H52.5ZM52.5 18.9044V18.9167H54.5V18.9044H52.5ZM52.5 18.892V18.9044H54.5V18.892H52.5ZM52.5 18.8797V18.892H54.5V18.8797H52.5ZM52.5 18.8673V18.8797H54.5V18.8673H52.5ZM52.5 18.855V18.8673H54.5V18.855H52.5ZM52.5 18.8426V18.855H54.5V18.8426H52.5ZM52.5 18.8302V18.8426H54.5V18.8302H52.5ZM52.5 18.8179V18.8302H54.5V18.8179H52.5ZM52.5 18.8055V18.8179H54.5V18.8055H52.5ZM52.5 18.7932V18.8055H54.5V18.7932H52.5ZM52.5 18.7808V18.7932H54.5V18.7808H52.5ZM52.5 18.7684V18.7808H54.5V18.7684H52.5ZM52.5 18.7561V18.7684H54.5V18.7561H52.5ZM52.5 18.7437V18.7561H54.5V18.7437H52.5ZM52.5 18.7313V18.7437H54.5V18.7313H52.5ZM52.5 18.719V18.7313H54.5V18.719H52.5ZM52.5 18.7066V18.719H54.5V18.7066H52.5ZM52.5 18.6942V18.7066H54.5V18.6942H52.5ZM52.5 18.6819V18.6942H54.5V18.6819H52.5ZM52.5 18.6695V18.6819H54.5V18.6695H52.5ZM52.5 18.6571V18.6695H54.5V18.6571H52.5ZM52.5 18.6447V18.6571H54.5V18.6447H52.5ZM52.5 18.6323V18.6447H54.5V18.6323H52.5ZM52.5 18.62V18.6323H54.5V18.62H52.5ZM52.5 18.6076V18.62H54.5V18.6076H52.5ZM52.5 18.5952V18.6076H54.5V18.5952H52.5ZM52.5 18.5828V18.5952H54.5V18.5828H52.5ZM52.5 18.5704V18.5828H54.5V18.5704H52.5ZM52.5 18.558V18.5704H54.5V18.558H52.5ZM52.5 18.5456V18.558H54.5V18.5456H52.5ZM52.5 18.5332V18.5456H54.5V18.5332H52.5ZM52.5 18.5209V18.5332H54.5V18.5209H52.5ZM52.5 18.5085V18.5209H54.5V18.5085H52.5ZM52.5 18.4961V18.5085H54.5V18.4961H52.5ZM52.5 18.4837V18.4961H54.5V18.4837H52.5ZM52.5 18.4713V18.4837H54.5V18.4713H52.5ZM52.5 18.4588V18.4713H54.5V18.4588H52.5ZM52.5 18.4464V18.4588H54.5V18.4464H52.5ZM52.5 18.434V18.4464H54.5V18.434H52.5ZM52.5 18.4216V18.434H54.5V18.4216H52.5ZM52.5 18.4092V18.4216H54.5V18.4092H52.5ZM52.5 18.3968V18.4092H54.5V18.3968H52.5ZM52.5 18.3844V18.3968H54.5V18.3844H52.5ZM52.5 18.372V18.3844H54.5V18.372H52.5ZM52.5 18.3595V18.372H54.5V18.3595H52.5ZM52.5 18.3471V18.3595H54.5V18.3471H52.5ZM52.5 18.3347V18.3471H54.5V18.3347H52.5ZM52.5 18.3222V18.3347H54.5V18.3222H52.5ZM52.5 18.3098V18.3222H54.5V18.3098H52.5ZM52.5 18.2974V18.3098H54.5V18.2974H52.5ZM52.5 18.2849V18.2974H54.5V18.2849H52.5ZM52.5 18.2725V18.2849H54.5V18.2725H52.5ZM52.5 18.2601V18.2725H54.5V18.2601H52.5ZM52.5 18.2476V18.2601H54.5V18.2476H52.5ZM52.5 18.2352V18.2476H54.5V18.2352H52.5ZM52.5 18.2227V18.2352H54.5V18.2227H52.5ZM52.5 18.2103V18.2227H54.5V18.2103H52.5ZM52.5 18.1978V18.2103H54.5V18.1978H52.5ZM52.5 18.1854V18.1978H54.5V18.1854H52.5ZM52.5 18.1729V18.1854H54.5V18.1729H52.5ZM52.5 18.1604V18.1729H54.5V18.1604H52.5ZM52.5 18.148V18.1604H54.5V18.148H52.5ZM52.5 18.1355V18.148H54.5V18.1355H52.5ZM52.5 18.123V18.1355H54.5V18.123H52.5ZM52.5 18.1105V18.123H54.5V18.1105H52.5ZM52.5 18.0981V18.1105H54.5V18.0981H52.5ZM52.5 18.0856V18.0981H54.5V18.0856H52.5ZM52.5 18.0731V18.0856H54.5V18.0731H52.5ZM52.5 18.0606V18.0731H54.5V18.0606H52.5ZM52.5 18.0481V18.0606H54.5V18.0481H52.5ZM52.5 18.0356V18.0481H54.5V18.0356H52.5ZM52.5 18.0231V18.0356H54.5V18.0231H52.5ZM52.5 18.0106V18.0231H54.5V18.0106H52.5ZM52.5 17.9981V18.0106H54.5V17.9981H52.5ZM52.5 17.9856V17.9981H54.5V17.9856H52.5ZM52.5 17.9731V17.9856H54.5V17.9731H52.5ZM52.5 17.9606V17.9731H54.5V17.9606H52.5ZM52.5 17.9481V17.9606H54.5V17.9481H52.5ZM52.5 17.9356V17.9481H54.5V17.9356H52.5ZM52.5 17.923V17.9356H54.5V17.923H52.5ZM52.5 17.9105V17.923H54.5V17.9105H52.5ZM52.5 17.898V17.9105H54.5V17.898H52.5ZM52.5 17.8854V17.898H54.5V17.8854H52.5ZM52.5 17.8729V17.8854H54.5V17.8729H52.5ZM52.5 17.8604V17.8729H54.5V17.8604H52.5ZM52.5 17.8478V17.8604H54.5V17.8478H52.5ZM52.5 17.8353V17.8478H54.5V17.8353H52.5ZM52.5 17.8227V17.8353H54.5V17.8227H52.5ZM52.5 17.8102V17.8227H54.5V17.8102H52.5ZM52.5 17.7976V17.8102H54.5V17.7976H52.5ZM52.5 17.785V17.7976H54.5V17.785H52.5ZM52.5 17.7725V17.785H54.5V17.7725H52.5ZM52.5 17.7599V17.7725H54.5V17.7599H52.5ZM52.5 17.7473V17.7599H54.5V17.7473H52.5ZM52.5 17.7348V17.7473H54.5V17.7348H52.5ZM52.5 17.7222V17.7348H54.5V17.7222H52.5ZM52.5 17.7096V17.7222H54.5V17.7096H52.5ZM52.5 17.697V17.7096H54.5V17.697H52.5ZM52.5 17.6844V17.697H54.5V17.6844H52.5ZM52.5 17.6718V17.6844H54.5V17.6718H52.5ZM52.5 17.6592V17.6718H54.5V17.6592H52.5ZM52.5 17.6466V17.6592H54.5V17.6466H52.5ZM52.5 17.634V17.6466H54.5V17.634H52.5ZM52.5 17.6214V17.634H54.5V17.6214H52.5ZM52.5 17.6087V17.6214H54.5V17.6087H52.5ZM52.5 17.5961V17.6087H54.5V17.5961H52.5ZM52.5 17.5835V17.5961H54.5V17.5835H52.5ZM52.5 17.5709V17.5835H54.5V17.5709H52.5ZM52.5 17.5582V17.5709H54.5V17.5582H52.5ZM52.5 17.5456V17.5582H54.5V17.5456H52.5ZM52.5 17.5329V17.5456H54.5V17.5329H52.5ZM52.5 17.5203V17.5329H54.5V17.5203H52.5ZM52.5 17.5076V17.5203H54.5V17.5076H52.5ZM52.5 17.495V17.5076H54.5V17.495H52.5ZM52.5 17.4823V17.495H54.5V17.4823H52.5ZM52.5 17.4696V17.4823H54.5V17.4696H52.5ZM52.5 17.457V17.4696H54.5V17.457H52.5ZM52.5 17.4443V17.457H54.5V17.4443H52.5ZM52.5 17.4316V17.4443H54.5V17.4316H52.5ZM52.5 17.4189V17.4316H54.5V17.4189H52.5ZM52.5 17.4062V17.4189H54.5V17.4062H52.5ZM52.5 17.3935V17.4062H54.5V17.3935H52.5ZM52.5 17.3808V17.3935H54.5V17.3808H52.5ZM52.5 17.3681V17.3808H54.5V17.3681H52.5ZM52.5 17.3554V17.3681H54.5V17.3554H52.5ZM52.5 17.3427V17.3554H54.5V17.3427H52.5ZM52.5 17.33V17.3427H54.5V17.33H52.5ZM52.5 17.3172V17.33H54.5V17.3172H52.5ZM52.5 17.3045V17.3172H54.5V17.3045H52.5ZM52.5 17.2918V17.3045H54.5V17.2918H52.5ZM52.5 17.279V17.2918H54.5V17.279H52.5ZM52.5 17.2663V17.279H54.5V17.2663H52.5ZM52.5 17.2535V17.2663H54.5V17.2535H52.5ZM52.5 17.2408V17.2535H54.5V17.2408H52.5ZM52.5 17.228V17.2408H54.5V17.228H52.5ZM52.5 17.2152V17.228H54.5V17.2152H52.5ZM52.5 17.2025V17.2152H54.5V17.2025H52.5ZM52.5 17.1897V17.2025H54.5V17.1897H52.5ZM52.5 17.1769V17.1897H54.5V17.1769H52.5ZM52.5 17.1641V17.1769H54.5V17.1641H52.5ZM52.5 17.1513V17.1641H54.5V17.1513H52.5ZM52.5 17.1385V17.1513H54.5V17.1385H52.5ZM52.5 17.1257V17.1385H54.5V17.1257H52.5ZM52.5 17.1129V17.1257H54.5V17.1129H52.5ZM52.5 17.1001V17.1129H54.5V17.1001H52.5ZM52.5 17.0873V17.1001H54.5V17.0873H52.5ZM52.5 17.0744V17.0873H54.5V17.0744H52.5ZM52.5 17.0616V17.0744H54.5V17.0616H52.5ZM52.5 17.0488V17.0616H54.5V17.0488H52.5ZM52.5 17.0359V17.0488H54.5V17.0359H52.5ZM52.5 17.0231V17.0359H54.5V17.0231H52.5ZM52.5 17.0102V17.0231H54.5V17.0102H52.5ZM52.5 16.9974V17.0102H54.5V16.9974H52.5ZM52.5 16.9845V16.9974H54.5V16.9845H52.5ZM52.5 16.9716V16.9845H54.5V16.9716H52.5ZM52.5 16.9587V16.9716H54.5V16.9587H52.5ZM52.5 16.9459V16.9587H54.5V16.9459H52.5ZM52.5 16.933V16.9459H54.5V16.933H52.5ZM52.5 16.9201V16.933H54.5V16.9201H52.5ZM52.5 16.9072V16.9201H54.5V16.9072H52.5ZM52.5 16.8943V16.9072H54.5V16.8943H52.5ZM52.5 16.8813V16.8943H54.5V16.8813H52.5ZM52.5 16.8684V16.8813H54.5V16.8684H52.5ZM52.5 16.8555V16.8684H54.5V16.8555H52.5ZM52.5 16.8426V16.8555H54.5V16.8426H52.5ZM52.5 16.8296V16.8426H54.5V16.8296H52.5ZM52.5 16.8167V16.8296H54.5V16.8167H52.5ZM52.5 16.8037V16.8167H54.5V16.8037H52.5ZM52.5 16.7908V16.8037H54.5V16.7908H52.5ZM52.5 16.7778V16.7908H54.5V16.7778H52.5ZM52.5 16.7648V16.7778H54.5V16.7648H52.5ZM52.5 16.7518V16.7648H54.5V16.7518H52.5ZM52.5 16.7389V16.7518H54.5V16.7389H52.5ZM52.5 16.7259V16.7389H54.5V16.7259H52.5ZM52.5 16.7129V16.7259H54.5V16.7129H52.5ZM52.5 16.6999V16.7129H54.5V16.6999H52.5ZM52.5 16.6869V16.6999H54.5V16.6869H52.5ZM52.5 16.6738V16.6869H54.5V16.6738H52.5ZM52.5 16.6608V16.6738H54.5V16.6608H52.5ZM52.5 16.6478V16.6608H54.5V16.6478H52.5ZM52.5 16.6348V16.6478H54.5V16.6348H52.5ZM52.5 16.6217V16.6348H54.5V16.6217H52.5ZM52.5 16.6087V16.6217H54.5V16.6087H52.5ZM52.5 16.5956V16.6087H54.5V16.5956H52.5ZM52.5 16.5825V16.5956H54.5V16.5825H52.5ZM52.5 16.5695V16.5825H54.5V16.5695H52.5ZM52.5 16.5564V16.5695H54.5V16.5564H52.5ZM52.5 16.5433V16.5564H54.5V16.5433H52.5ZM52.5 16.5302V16.5433H54.5V16.5302H52.5ZM52.5 16.5171V16.5302H54.5V16.5171H52.5ZM52.5 16.504V16.5171H54.5V16.504H52.5ZM52.5 16.4909V16.504H54.5V16.4909H52.5ZM52.5 16.4778V16.4909H54.5V16.4778H52.5ZM52.5 16.4646V16.4778H54.5V16.4646H52.5ZM52.5 16.4515V16.4646H54.5V16.4515H52.5ZM52.5 16.4384V16.4515H54.5V16.4384H52.5ZM52.5 16.4252V16.4384H54.5V16.4252H52.5ZM52.5 16.4121V16.4252H54.5V16.4121H52.5ZM52.5 16.3989V16.4121H54.5V16.3989H52.5ZM52.5 16.3857V16.3989H54.5V16.3857H52.5ZM52.5 16.3725V16.3857H54.5V16.3725H52.5ZM52.5 16.3594V16.3725H54.5V16.3594H52.5ZM52.5 16.3462V16.3594H54.5V16.3462H52.5ZM52.5 16.333V16.3462H54.5V16.333H52.5ZM52.5 16.3198V16.333H54.5V16.3198H52.5ZM52.5 16.3065V16.3198H54.5V16.3065H52.5ZM52.5 16.2933V16.3065H54.5V16.2933H52.5ZM52.5 16.2801V16.2933H54.5V16.2801H52.5ZM52.5 16.2669V16.2801H54.5V16.2669H52.5ZM52.5 16.2536V16.2669H54.5V16.2536H52.5ZM52.5 16.2404V16.2536H54.5V16.2404H52.5ZM52.5 16.2271V16.2404H54.5V16.2271H52.5ZM52.5 16.2138V16.2271H54.5V16.2138H52.5ZM52.5 16.2005V16.2138H54.5V16.2005H52.5ZM52.5 16.1873V16.2005H54.5V16.1873H52.5ZM52.5 16.174V16.1873H54.5V16.174H52.5ZM52.5 16.1607V16.174H54.5V16.1607H52.5ZM52.5 16.1474V16.1607H54.5V16.1474H52.5ZM52.5 16.134V16.1474H54.5V16.134H52.5ZM52.5 16.1207V16.134H54.5V16.1207H52.5ZM52.5 16.1074V16.1207H54.5V16.1074H52.5ZM52.5 16.0941V16.1074H54.5V16.0941H52.5ZM52.5 16.0807V16.0941H54.5V16.0807H52.5ZM52.5 16.0673V16.0807H54.5V16.0673H52.5ZM52.5 16.054V16.0673H54.5V16.054H52.5ZM52.5 16.0406V16.054H54.5V16.0406H52.5ZM52.5 16.0272V16.0406H54.5V16.0272H52.5ZM52.5 16.0138V16.0272H54.5V16.0138H52.5ZM52.5 16.0004V16.0138H54.5V16.0004H52.5ZM50 13.5C51.3806 13.5 52.5 14.6196 52.5 16.0004H54.5C54.5 13.5155 52.4856 11.5 50 11.5V13.5ZM26 13.5H50V11.5H26V13.5ZM22.5 10C22.5 11.933 24.067 13.5 26 13.5V11.5C25.1716 11.5 24.5 10.8284 24.5 10H22.5ZM22.5 3.5V10H24.5V3.5H22.5ZM20 1C21.3807 1 22.5 2.11929 22.5 3.5H24.5C24.5 1.01472 22.4853 -1 20 -1V1ZM8.3877 1H20V-1H8.3877V1ZM33.0224 24H32.948V26H33.0224V24ZM34 25.5C34 25.3615 34.0062 25.2246 34.0184 25.0897L32.0265 24.9103C32.0089 25.1047 32 25.3014 32 25.5H34ZM34.0184 25.9103C34.0062 25.7754 34 25.6385 34 25.5H32C32 25.6986 32.0089 25.8953 32.0265 26.0897L34.0184 25.9103ZM32.948 27H33.0224V25H32.948V27ZM32.8621 27H32.948V25H32.8621V27ZM32.7762 27H32.8621V25H32.7762V27ZM32.6903 27H32.7762V25H32.6903V27ZM32.6045 27H32.6903V25H32.6045V27ZM32.5188 27H32.6045V25H32.5188V27ZM32.433 27H32.5188V25H32.433V27ZM32.3474 27H32.433V25H32.3474V27ZM32.2617 27H32.3474V25H32.2617V27ZM32.1761 27H32.2617V25H32.1761V27ZM32.0906 27H32.1761V25H32.0906V27ZM32.005 27H32.0906V25H32.005V27ZM31.9195 27H32.005V25H31.9195V27ZM31.8341 27H31.9195V25H31.8341V27ZM31.7487 27H31.8341V25H31.7487V27ZM31.6633 27H31.7487V25H31.6633V27ZM31.5779 27H31.6633V25H31.5779V27ZM31.4926 27H31.5779V25H31.4926V27ZM31.4073 27H31.4926V25H31.4073V27ZM31.3221 27H31.4073V25H31.3221V27ZM31.2368 27H31.3221V25H31.2368V27ZM31.1516 27H31.2368V25H31.1516V27ZM31.0665 27H31.1516V25H31.0665V27ZM30.9813 27H31.0665V25H30.9813V27ZM30.8962 27H30.9813V25H30.8962V27ZM30.8112 27H30.8962V25H30.8112V27ZM30.7261 27H30.8112V25H30.7261V27ZM30.6411 27H30.7261V25H30.6411V27ZM30.5561 27H30.6411V25H30.5561V27ZM30.4712 27H30.5561V25H30.4712V27ZM30.3862 27H30.4712V25H30.3862V27ZM30.3013 27H30.3862V25H30.3013V27ZM30.2164 27H30.3013V25H30.2164V27ZM30.1315 27H30.2164V25H30.1315V27ZM30.0467 27H30.1315V25H30.0467V27ZM29.9619 27H30.0467V25H29.9619V27ZM29.8771 27H29.9619V25H29.8771V27ZM29.7923 27H29.8771V25H29.7923V27ZM29.7076 27H29.7923V25H29.7076V27ZM29.6228 27H29.7076V25H29.6228V27ZM29.5381 27H29.6228V25H29.5381V27ZM29.4534 27H29.5381V25H29.4534V27ZM29.3688 27H29.4534V25H29.3688V27ZM29.2841 27H29.3688V25H29.2841V27ZM29.1995 27H29.2841V25H29.1995V27ZM29.1148 27H29.1995V25H29.1148V27ZM29.0302 27H29.1148V25H29.0302V27ZM28.9457 27H29.0302V25H28.9457V27ZM28.8611 27H28.9457V25H28.8611V27ZM28.7765 27H28.8611V25H28.7765V27ZM28.692 27H28.7765V25H28.692V27ZM28.6074 27H28.692V25H28.6074V27ZM28.5229 27H28.6074V25H28.5229V27ZM28.4384 27H28.5229V25H28.4384V27ZM28.3539 27H28.4384V25H28.3539V27ZM28.2694 27H28.3539V25H28.2694V27ZM28.185 27H28.2694V25H28.185V27ZM28.1005 27H28.185V25H28.1005V27ZM28.0161 27H28.1005V25H28.0161V27ZM27.9316 27H28.0161V25H27.9316V27ZM27.8472 27H27.9316V25H27.8472V27ZM27.7628 27H27.8472V25H27.7628V27ZM27.6783 27H27.7628V25H27.6783V27ZM27.5939 27H27.6783V25H27.5939V27ZM27.5095 27H27.5939V25H27.5095V27ZM27.4251 27H27.5095V25H27.4251V27ZM27.3407 27H27.4251V25H27.3407V27ZM27.2563 27H27.3407V25H27.2563V27ZM27.1719 27H27.2563V25H27.1719V27ZM27.0875 27H27.1719V25H27.0875V27ZM27.0031 27H27.0875V25H27.0031V27ZM26.9188 27H27.0031V25H26.9188V27ZM26.8344 27H26.9188V25H26.8344V27ZM26.75 27H26.8344V25H26.75V27ZM26.6656 27H26.75V25H26.6656V27ZM26.5812 27H26.6656V25H26.5812V27ZM26.4969 27H26.5812V25H26.4969V27ZM26.4125 27H26.4969V25H26.4125V27ZM26.3281 27H26.4125V25H26.3281V27ZM26.2437 27H26.3281V25H26.2437V27ZM26.1593 27H26.2437V25H26.1593V27ZM26.0749 27H26.1593V25H26.0749V27ZM25.9905 27H26.0749V25H25.9905V27ZM25.9061 27H25.9905V25H25.9061V27ZM25.8217 27H25.9061V25H25.8217V27ZM25.7372 27H25.8217V25H25.7372V27ZM25.6528 27H25.7372V25H25.6528V27ZM25.5684 27H25.6528V25H25.5684V27ZM25.4839 27H25.5684V25H25.4839V27ZM25.3995 27H25.4839V25H25.3995V27ZM25.315 27H25.3995V25H25.315V27ZM25.2306 27H25.315V25H25.2306V27ZM25.1461 27H25.2306V25H25.1461V27ZM25.0616 27H25.1461V25H25.0616V27ZM24.9771 27H25.0616V25H24.9771V27ZM24.8925 27H24.9771V25H24.8925V27ZM24.808 27H24.8925V25H24.808V27ZM24.7235 27H24.808V25H24.7235V27ZM24.6389 27H24.7235V25H24.6389V27ZM24.5543 27H24.6389V25H24.5543V27ZM24.4698 27H24.5543V25H24.4698V27ZM24.3852 27H24.4698V25H24.3852V27ZM24.3005 27H24.3852V25H24.3005V27ZM24.2159 27H24.3005V25H24.2159V27ZM24.1312 27H24.2159V25H24.1312V27ZM24.0466 27H24.1312V25H24.0466V27ZM23.9619 27H24.0466V25H23.9619V27ZM23.8772 27H23.9619V25H23.8772V27ZM23.7924 27H23.8772V25H23.7924V27ZM23.7077 27H23.7924V25H23.7077V27ZM23.6229 27H23.7077V25H23.6229V27ZM23.5381 27H23.6229V25H23.5381V27ZM23.4533 27H23.5381V25H23.4533V27ZM23.3684 27H23.4533V25H23.3684V27ZM23.2836 27H23.3684V25H23.2836V27ZM23.1987 27H23.2836V25H23.1987V27ZM23.1138 27H23.1987V25H23.1138V27ZM23.0288 27H23.1138V25H23.0288V27ZM22.9439 27H23.0288V25H22.9439V27ZM22.8589 27H22.9439V25H22.8589V27ZM22.7739 27H22.8589V25H22.7739V27ZM22.6888 27H22.7739V25H22.6888V27ZM22.6038 27H22.6888V25H22.6038V27ZM22.5187 27H22.6038V25H22.5187V27ZM22.4335 27H22.5187V25H22.4335V27ZM22.3484 27H22.4335V25H22.3484V27ZM22.2632 27H22.3484V25H22.2632V27ZM22.1779 27H22.2632V25H22.1779V27ZM22.0927 27H22.1779V25H22.0927V27ZM22.0074 27H22.0927V25H22.0074V27ZM21.9221 27H22.0074V25H21.9221V27ZM21.8367 27H21.9221V25H21.8367V27ZM21.7513 27H21.8367V25H21.7513V27ZM21.6659 27H21.7513V25H21.6659V27ZM21.5805 27H21.6659V25H21.5805V27ZM21.495 27H21.5805V25H21.495V27ZM21.4094 27H21.495V25H21.4094V27ZM21.3239 27H21.4094V25H21.3239V27ZM21.2383 27H21.3239V25H21.2383V27ZM21.1526 27H21.2383V25H21.1526V27ZM21.067 27H21.1526V25H21.067V27ZM20.9812 27H21.067V25H20.9812V27ZM20.8955 27H20.9812V25H20.8955V27ZM20.8097 27H20.8955V25H20.8097V27ZM20.7238 27H20.8097V25H20.7238V27ZM20.6379 27H20.7238V25H20.6379V27ZM20.552 27H20.6379V25H20.552V27ZM20.4661 27H20.552V25H20.4661V27ZM20.38 27H20.4661V25H20.38V27ZM20.294 27H20.38V25H20.294V27ZM20.2079 27H20.294V25H20.2079V27ZM20.1217 27H20.2079V25H20.1217V27ZM20.0355 27H20.1217V25H20.0355V27ZM19.9493 27H20.0355V25H19.9493V27ZM19.863 27H19.9493V25H19.863V27ZM19.7767 27H19.863V25H19.7767V27ZM19.6903 27H19.7767V25H19.6903V27ZM19.6039 27H19.6903V25H19.6039V27ZM19.5174 27H19.6039V25H19.5174V27ZM19.4309 27H19.5174V25H19.4309V27ZM19.3443 27H19.4309V25H19.3443V27ZM19.2577 27H19.3443V25H19.2577V27ZM19.171 27H19.2577V25H19.171V27ZM19.0842 27H19.171V25H19.0842V27ZM18.9975 27H19.0842V25H18.9975V27ZM18.9776 27H18.9975V25H18.9776V27ZM18 25.5C18 25.6385 17.9938 25.7754 17.9816 25.9102L19.9735 26.0898C19.9911 25.8953 20 25.6985 20 25.5H18ZM17.9816 25.0898C17.9938 25.2246 18 25.3615 18 25.5H20C20 25.3015 19.9911 25.1047 19.9735 24.9102L17.9816 25.0898ZM18.9975 24H18.9776V26H18.9975V24ZM19.0842 24H18.9975V26H19.0842V24ZM19.171 24H19.0842V26H19.171V24ZM19.2577 24H19.171V26H19.2577V24ZM19.3443 24H19.2577V26H19.3443V24ZM19.4309 24H19.3443V26H19.4309V24ZM19.5174 24H19.4309V26H19.5174V24ZM19.6039 24H19.5174V26H19.6039V24ZM19.6903 24H19.6039V26H19.6903V24ZM19.7767 24H19.6903V26H19.7767V24ZM19.863 24H19.7767V26H19.863V24ZM19.9493 24H19.863V26H19.9493V24ZM20.0355 24H19.9493V26H20.0355V24ZM20.1217 24H20.0355V26H20.1217V24ZM20.2079 24H20.1217V26H20.2079V24ZM20.294 24H20.2079V26H20.294V24ZM20.38 24H20.294V26H20.38V24ZM20.4661 24H20.38V26H20.4661V24ZM20.552 24H20.4661V26H20.552V24ZM20.6379 24H20.552V26H20.6379V24ZM20.7238 24H20.6379V26H20.7238V24ZM20.8097 24H20.7238V26H20.8097V24ZM20.8955 24H20.8097V26H20.8955V24ZM20.9812 24H20.8955V26H20.9812V24ZM21.067 24H20.9812V26H21.067V24ZM21.1526 24H21.067V26H21.1526V24ZM21.2383 24H21.1526V26H21.2383V24ZM21.3239 24H21.2383V26H21.3239V24ZM21.4094 24H21.3239V26H21.4094V24ZM21.495 24H21.4094V26H21.495V24ZM21.5805 24H21.495V26H21.5805V24ZM21.6659 24H21.5805V26H21.6659V24ZM21.7513 24H21.6659V26H21.7513V24ZM21.8367 24H21.7513V26H21.8367V24ZM21.9221 24H21.8367V26H21.9221V24ZM22.0074 24H21.9221V26H22.0074V24ZM22.0927 24H22.0074V26H22.0927V24ZM22.1779 24H22.0927V26H22.1779V24ZM22.2632 24H22.1779V26H22.2632V24ZM22.3484 24H22.2632V26H22.3484V24ZM22.4335 24H22.3484V26H22.4335V24ZM22.5187 24H22.4335V26H22.5187V24ZM22.6038 24H22.5187V26H22.6038V24ZM22.6888 24H22.6038V26H22.6888V24ZM22.7739 24H22.6888V26H22.7739V24ZM22.8589 24H22.7739V26H22.8589V24ZM22.9439 24H22.8589V26H22.9439V24ZM23.0288 24H22.9439V26H23.0288V24ZM23.1138 24H23.0288V26H23.1138V24ZM23.1987 24H23.1138V26H23.1987V24ZM23.2836 24H23.1987V26H23.2836V24ZM23.3684 24H23.2836V26H23.3684V24ZM23.4533 24H23.3684V26H23.4533V24ZM23.5381 24H23.4533V26H23.5381V24ZM23.6229 24H23.5381V26H23.6229V24ZM23.7077 24H23.6229V26H23.7077V24ZM23.7924 24H23.7077V26H23.7924V24ZM23.8772 24H23.7924V26H23.8772V24ZM23.9619 24H23.8772V26H23.9619V24ZM24.0466 24H23.9619V26H24.0466V24ZM24.1312 24H24.0466V26H24.1312V24ZM24.2159 24H24.1312V26H24.2159V24ZM24.3005 24H24.2159V26H24.3005V24ZM24.3852 24H24.3005V26H24.3852V24ZM24.4698 24H24.3852V26H24.4698V24ZM24.5543 24H24.4698V26H24.5543V24ZM24.6389 24H24.5543V26H24.6389V24ZM24.7235 24H24.6389V26H24.7235V24ZM24.808 24H24.7235V26H24.808V24ZM24.8925 24H24.808V26H24.8925V24ZM24.9771 24H24.8925V26H24.9771V24ZM25.0616 24H24.9771V26H25.0616V24ZM25.1461 24H25.0616V26H25.1461V24ZM25.2306 24H25.1461V26H25.2306V24ZM25.315 24H25.2306V26H25.315V24ZM25.3995 24H25.315V26H25.3995V24ZM25.4839 24H25.3995V26H25.4839V24ZM25.5684 24H25.4839V26H25.5684V24ZM25.6528 24H25.5684V26H25.6528V24ZM25.7372 24H25.6528V26H25.7372V24ZM25.8217 24H25.7372V26H25.8217V24ZM25.9061 24H25.8217V26H25.9061V24ZM25.9905 24H25.9061V26H25.9905V24ZM26.0749 24H25.9905V26H26.0749V24ZM26.1593 24H26.0749V26H26.1593V24ZM26.2437 24H26.1593V26H26.2437V24ZM26.3281 24H26.2437V26H26.3281V24ZM26.4125 24H26.3281V26H26.4125V24ZM26.4969 24H26.4125V26H26.4969V24ZM26.5812 24H26.4969V26H26.5812V24ZM26.6656 24H26.5812V26H26.6656V24ZM26.75 24H26.6656V26H26.75V24ZM26.8344 24H26.75V26H26.8344V24ZM26.9188 24H26.8344V26H26.9188V24ZM27.0031 24H26.9188V26H27.0031V24ZM27.0875 24H27.0031V26H27.0875V24ZM27.1719 24H27.0875V26H27.1719V24ZM27.2563 24H27.1719V26H27.2563V24ZM27.3407 24H27.2563V26H27.3407V24ZM27.4251 24H27.3407V26H27.4251V24ZM27.5095 24H27.4251V26H27.5095V24ZM27.5939 24H27.5095V26H27.5939V24ZM27.6783 24H27.5939V26H27.6783V24ZM27.7628 24H27.6783V26H27.7628V24ZM27.8472 24H27.7628V26H27.8472V24ZM27.9316 24H27.8472V26H27.9316V24ZM28.0161 24H27.9316V26H28.0161V24ZM28.1005 24H28.0161V26H28.1005V24ZM28.185 24H28.1005V26H28.185V24ZM28.2694 24H28.185V26H28.2694V24ZM28.3539 24H28.2694V26H28.3539V24ZM28.4384 24H28.3539V26H28.4384V24ZM28.5229 24H28.4384V26H28.5229V24ZM28.6074 24H28.5229V26H28.6074V24ZM28.692 24H28.6074V26H28.692V24ZM28.7765 24H28.692V26H28.7765V24ZM28.8611 24H28.7765V26H28.8611V24ZM28.9457 24H28.8611V26H28.9457V24ZM29.0302 24H28.9457V26H29.0302V24ZM29.1148 24H29.0302V26H29.1148V24ZM29.1995 24H29.1148V26H29.1995V24ZM29.2841 24H29.1995V26H29.2841V24ZM29.3688 24H29.2841V26H29.3688V24ZM29.4534 24H29.3688V26H29.4534V24ZM29.5381 24H29.4534V26H29.5381V24ZM29.6228 24H29.5381V26H29.6228V24ZM29.7076 24H29.6228V26H29.7076V24ZM29.7923 24H29.7076V26H29.7923V24ZM29.8771 24H29.7923V26H29.8771V24ZM29.9619 24H29.8771V26H29.9619V24ZM30.0467 24H29.9619V26H30.0467V24ZM30.1315 24H30.0467V26H30.1315V24ZM30.2164 24H30.1315V26H30.2164V24ZM30.3013 24H30.2164V26H30.3013V24ZM30.3862 24H30.3013V26H30.3862V24ZM30.4712 24H30.3862V26H30.4712V24ZM30.5561 24H30.4712V26H30.5561V24ZM30.6411 24H30.5561V26H30.6411V24ZM30.7261 24H30.6411V26H30.7261V24ZM30.8112 24H30.7261V26H30.8112V24ZM30.8962 24H30.8112V26H30.8962V24ZM30.9813 24H30.8962V26H30.9813V24ZM31.0665 24H30.9813V26H31.0665V24ZM31.1516 24H31.0665V26H31.1516V24ZM31.2368 24H31.1516V26H31.2368V24ZM31.3221 24H31.2368V26H31.3221V24ZM31.4073 24H31.3221V26H31.4073V24ZM31.4926 24H31.4073V26H31.4926V24ZM31.5779 24H31.4926V26H31.5779V24ZM31.6633 24H31.5779V26H31.6633V24ZM31.7487 24H31.6633V26H31.7487V24ZM31.8341 24H31.7487V26H31.8341V24ZM31.9195 24H31.8341V26H31.9195V24ZM32.005 24H31.9195V26H32.005V24ZM32.0906 24H32.005V26H32.0906V24ZM32.1761 24H32.0906V26H32.1761V24ZM32.2617 24H32.1761V26H32.2617V24ZM32.3474 24H32.2617V26H32.3474V24ZM32.433 24H32.3474V26H32.433V24ZM32.5188 24H32.433V26H32.5188V24ZM32.6045 24H32.5188V26H32.6045V24ZM32.6903 24H32.6045V26H32.6903V24ZM32.7762 24H32.6903V26H32.7762V24ZM32.8621 24H32.7762V26H32.8621V24ZM32.948 24H32.8621V26H32.948V24ZM28 2H50V0H28V2ZM27 3C27 2.44772 27.4477 2 28 2V0C26.3431 0 25 1.34315 25 3H27ZM27 8V3H25V8H27ZM28 9C27.4477 9 27 8.55228 27 8H25C25 9.65685 26.3431 11 28 11V9ZM50 9H28V11H50V9ZM51 8C51 8.55228 50.5523 9 50 9V11C51.6569 11 53 9.65685 53 8H51ZM51 3V8H53V3H51ZM50 2C50.5523 2 51 2.44772 51 3H53C53 1.34315 51.6569 0 50 0V2ZM26 3C26 1.89543 26.8954 1 28 1V-1C25.7909 -1 24 0.790861 24 3H26ZM26 8V3H24V8H26ZM28 10C26.8954 10 26 9.10457 26 8H24C24 10.2091 25.7909 12 28 12V10ZM50 10H28V12H50V10ZM52 8C52 9.10457 51.1046 10 50 10V12C52.2091 12 54 10.2091 54 8H52ZM52 3V8H54V3H52ZM50 1C51.1046 1 52 1.89543 52 3H54C54 0.790861 52.2091 -1 50 -1V1ZM28 1H50V-1H28V1ZM11.598 5.51082V12H13.598V5.51082H11.598ZM10.8239 12.3838L13.5214 5.89467L11.6746 5.12697L8.97711 11.6162L10.8239 12.3838ZM12.598 11H9.90051V13H12.598V11ZM12.598 5.51082C12.6022 5.50078 12.6054 5.49544 12.6066 5.49359C12.6078 5.49176 12.6076 5.49234 12.6057 5.49436C12.6038 5.49637 12.6011 5.49888 12.5976 5.50141C12.5942 5.50391 12.5908 5.50588 12.5878 5.50732C12.5818 5.51021 12.5794 5.51008 12.582 5.50979C12.5849 5.50946 12.5906 5.50935 12.598 5.51082C12.6054 5.51229 12.6107 5.5146 12.6132 5.51601C12.6154 5.51727 12.6132 5.51646 12.6088 5.5115C12.6066 5.50902 12.6042 5.50591 12.602 5.50229C12.5998 5.49862 12.5982 5.49525 12.5972 5.49267C12.5962 5.49007 12.5963 5.48948 12.5967 5.49162C12.5971 5.49378 12.598 5.49994 12.598 5.51082H14.598C14.598 3.32375 11.5907 2.72359 10.7512 4.74312L12.598 5.51082ZM9.90051 12L12.598 5.51082L10.7512 4.74312L8.05371 11.2323L9.90051 12ZM9.90051 12L9.90051 12L8.05371 11.2323C7.50618 12.5495 8.47406 14 9.90051 14V12ZM12.598 12H9.90051V14H12.598V12ZM12.598 12V14C13.7026 14 14.598 13.1046 14.598 12H12.598ZM12.598 5.51082V12H14.598V5.51082H12.598Z" fill="#333333" mask="url(#path-1-inside-1)"/>
<circle cx="13.5" cy="25.5" r="5" stroke="#333333"/>
<path d="M43.5 25.5C43.5 28.2614 41.2614 30.5 38.5 30.5C35.7386 30.5 33.5 28.2614 33.5 25.5C33.5 22.7386 35.7386 20.5 38.5 20.5C41.2614 20.5 43.5 22.7386 43.5 25.5Z" stroke="#333333"/>
</svg>
